<svg width="114" height="91" viewBox="0 0 114 91" fill="none" xmlns="http://www.w3.org/2000/svg">
<path d="M57.6063 15.5285L56.8739 16.8376C57.2655 17.0566 57.7345 17.0889 58.1523 16.9255L57.6063 15.5285ZM64.4659 3.28421C65.1751 2.85612 65.4031 1.93413 64.975 1.22488C64.5469 0.51563 63.6249 0.287706 62.9156 0.715794L64.4659 3.28421ZM69.5304 51.7586L68.9106 50.3926L69.5304 51.7586ZM57.2943 51.7761L57.8773 50.3941C57.6083 50.2806 57.312 50.2481 57.0247 50.3006L57.2943 51.7761ZM47.2588 52.8769L47.8138 51.4833L47.2588 52.8769ZM40.3647 31.1684C40.2855 31.9931 40.8899 32.7257 41.7145 32.8049C42.5392 32.884 43.2718 32.2796 43.351 31.455L40.3647 31.1684ZM50.8011 22.606C51.6295 22.6085 52.3031 21.939 52.3056 21.1106C52.3081 20.2822 51.6386 19.6085 50.8102 19.606L50.8011 22.606ZM25.8709 52.8339C25.0424 52.8339 24.3709 53.5054 24.3709 54.3339C24.3709 55.1623 25.0424 55.8339 25.8709 55.8339V52.8339ZM88.9828 55.8339C89.8112 55.8339 90.4828 55.1623 90.4828 54.3339C90.4828 53.5054 89.8112 52.8339 88.9828 52.8339V55.8339ZM2 63.6945V62.1945C1.17157 62.1945 0.5 62.8661 0.5 63.6945H2ZM112 63.6945H113.5C113.5 62.8661 112.828 62.1945 112 62.1945V63.6945ZM112 88.6945V90.1945C112.828 90.1945 113.5 89.5229 113.5 88.6945H112ZM2 88.6945H0.5C0.5 89.5229 1.17157 90.1945 2 90.1945L2 88.6945ZM25.5 63.6945C25.5 62.8661 24.8284 62.1945 24 62.1945C23.1716 62.1945 22.5 62.8661 22.5 63.6945H25.5ZM22.5 88.6945C22.5 89.5229 23.1716 90.1945 24 90.1945C24.8284 90.1945 25.5 89.5229 25.5 88.6945H22.5ZM47.5 63.6945C47.5 62.8661 46.8284 62.1945 46 62.1945C45.1716 62.1945 44.5 62.8661 44.5 63.6945H47.5ZM44.5 88.6945C44.5 89.5229 45.1716 90.1945 46 90.1945C46.8284 90.1945 47.5 89.5229 47.5 88.6945H44.5ZM69.5 63.6945C69.5 62.8661 68.8285 62.1945 68 62.1945C67.1716 62.1945 66.5 62.8661 66.5 63.6945H69.5ZM66.5 88.6945C66.5 89.5229 67.1716 90.1945 68 90.1945C68.8285 90.1945 69.5 89.5229 69.5 88.6945H66.5ZM91.5 63.6945C91.5 62.8661 90.8285 62.1945 90 62.1945C89.1716 62.1945 88.5 62.8661 88.5 63.6945H91.5ZM88.5 88.6945C88.5 89.5229 89.1716 90.1945 90 90.1945C90.8285 90.1945 91.5 89.5229 91.5 88.6945H88.5ZM8.03406 81.5055C7.85853 82.3151 8.37255 83.1137 9.18217 83.2892C9.99179 83.4648 10.7904 82.9507 10.9659 82.1411L8.03406 81.5055ZM12.0754 69.9445V68.4445C11.3695 68.4445 10.7591 68.9367 10.6095 69.6267L12.0754 69.9445ZM14.8737 69.9445L16.3379 69.6186C16.1852 68.9325 15.5766 68.4445 14.8737 68.4445V69.9445ZM16.0531 82.1491C16.233 82.9578 17.0344 83.4674 17.8431 83.2875C18.6517 83.1075 19.1614 82.3061 18.9814 81.4975L16.0531 82.1491ZM10.4126 76.1139C9.5842 76.1139 8.91263 76.7855 8.91263 77.6139C8.91263 78.4423 9.5842 79.1139 10.4126 79.1139V76.1139ZM16.5805 79.1139C17.4089 79.1139 18.0805 78.4423 18.0805 77.6139C18.0805 76.7855 17.4089 76.1139 16.5805 76.1139V79.1139ZM38.6758 73.5629L40.1747 73.6202V73.6202L38.6758 73.5629ZM32 69.9704L32.0024 68.4704C31.6042 68.4697 31.222 68.6275 30.9402 68.9089C30.6584 69.1902 30.5 69.5721 30.5 69.9704H32ZM30.5 81.5644C30.5 82.3928 31.1716 83.0644 32 83.0644C32.8284 83.0644 33.5 82.3928 33.5 81.5644H30.5ZM61.1758 73.5629L62.6747 73.6202V73.6202L61.1758 73.5629ZM54.5 69.9704L54.5024 68.4704C54.1042 68.4697 53.722 68.6275 53.4402 68.9089C53.1584 69.1902 53 69.5721 53 69.9704H54.5ZM53 81.5644C53 82.3929 53.6716 83.0644 54.5 83.0644C55.3284 83.0644 56 82.3929 56 81.5644H53ZM78.5 68.6945C78.5 67.8661 77.8284 67.1945 77 67.1945C76.1716 67.1945 75.5 67.8661 75.5 68.6945H78.5ZM77 81.9032H75.5C75.5 82.7316 76.1716 83.4032 77 83.4032V81.9032ZM83.681 83.4032C84.5095 83.4032 85.181 82.7316 85.181 81.9032C85.181 81.0747 84.5095 80.4032 83.681 80.4032V83.4032ZM104.5 83.9445C105.328 83.9445 106 83.2729 106 82.4445C106 81.6161 105.328 80.9445 104.5 80.9445V83.9445ZM98.25 82.4445H96.75C96.75 83.2729 97.4216 83.9445 98.25 83.9445V82.4445ZM98.25 69.9445V68.4445C97.4216 68.4445 96.75 69.1161 96.75 69.9445H98.25ZM104.5 71.4445C105.328 71.4445 106 70.7729 106 69.9445C106 69.1161 105.328 68.4445 104.5 68.4445V71.4445ZM98.25 74.6672C97.4216 74.6672 96.75 75.3388 96.75 76.1672C96.75 76.9957 97.4216 77.6672 98.25 77.6672V74.6672ZM104.5 77.6672C105.328 77.6672 106 76.9957 106 76.1672C106 75.3388 105.328 74.6672 104.5 74.6672V77.6672ZM59.0705 15.203C58.5662 12.9345 58.445 10.9052 59.111 9.01817C59.7671 7.15915 61.2691 5.21373 64.4659 3.28421L62.9156 0.715794C59.2999 2.89821 57.2299 5.33401 56.282 8.01973C55.344 10.6775 55.5868 13.3564 56.142 15.854L59.0705 15.203ZM58.1523 16.9255C64.1892 14.5659 68.6875 15.1462 71.8651 17.1472C75.0948 19.1811 77.2523 22.8652 78.183 27.2578C79.1117 31.6408 78.7774 36.5669 77.1893 40.8418C75.6023 45.1136 72.8116 48.6225 68.9106 50.3926L70.1502 53.1245C74.9556 50.9441 78.2117 46.7044 80.0015 41.8865C81.7902 37.0718 82.1627 31.5674 81.1178 26.636C80.075 21.7141 77.5785 17.1999 73.4637 14.6086C69.2966 11.9845 63.7597 11.5128 57.0602 14.1314L58.1523 16.9255ZM68.9106 50.3926C67.3537 51.0991 65.2889 51.4071 63.1978 51.3652C61.108 51.3233 59.1611 50.9355 57.8773 50.3941L56.7114 53.1582C58.4324 53.8841 60.775 54.3173 63.1377 54.3646C65.4991 54.4119 68.0499 54.0775 70.1502 53.1245L68.9106 50.3926ZM57.0247 50.3006C55.7868 50.5268 54.8058 50.8461 53.9746 51.1539C53.0897 51.4817 52.5569 51.7195 51.9351 51.9071C51.3853 52.0731 50.8816 52.1565 50.287 52.1202C49.6768 52.0829 48.8973 51.9148 47.8138 51.4833L46.7039 54.2705C47.9923 54.7835 49.0908 55.0527 50.1041 55.1146C51.133 55.1774 51.9982 55.0217 52.802 54.7791C53.5338 54.5583 54.3393 54.218 55.0166 53.9672C55.7475 53.6964 56.5527 53.4365 57.564 53.2517L57.0247 50.3006ZM47.8138 51.4833C41.8411 49.105 38.3245 45.0905 36.6342 40.6087C34.93 36.0901 35.0524 31.009 36.546 26.532C38.0433 22.0439 40.8671 18.3083 44.3946 16.3628C47.8515 14.4563 52.1272 14.1822 56.8739 16.8376L58.3386 14.2194C52.724 11.0786 47.3462 11.3089 42.9458 13.7358C38.616 16.1238 35.3789 20.5507 33.7002 25.5826C32.0177 30.6257 31.849 36.4222 33.8272 41.6673C35.8192 46.9491 39.9585 51.5844 46.7039 54.2705L47.8138 51.4833ZM43.351 31.455C43.6977 27.8412 44.659 25.6672 45.8759 24.4005C47.0573 23.1705 48.6704 22.5995 50.8011 22.606L50.8102 19.606C48.1133 19.5978 45.6161 20.3403 43.7123 22.3222C41.8439 24.2673 40.7451 27.2036 40.3647 31.1684L43.351 31.455ZM25.8709 55.8339H88.9828V52.8339H25.8709V55.8339ZM2 65.1945H112V62.1945H2V65.1945ZM110.5 63.6945V88.6945H113.5V63.6945H110.5ZM112 87.1945H2V90.1945H112V87.1945ZM3.5 88.6945V63.6945H0.5V88.6945H3.5ZM22.5 63.6945V88.6945H25.5V63.6945H22.5ZM44.5 63.6945V88.6945H47.5V63.6945H44.5ZM66.5 63.6945V88.6945H69.5V63.6945H66.5ZM88.5 63.6945V88.6945H91.5V63.6945H88.5ZM10.9659 82.1411L13.5414 70.2623L10.6095 69.6267L8.03406 81.5055L10.9659 82.1411ZM12.0754 71.4445H14.8737V68.4445H12.0754V71.4445ZM13.4095 70.2703L16.0531 82.1491L18.9814 81.4975L16.3379 69.6186L13.4095 70.2703ZM10.4126 79.1139H16.5805V76.1139H10.4126V79.1139ZM31.7933 77.6731C34.3297 78.0259 36.3341 77.9472 37.7787 77.2847C38.5377 76.9367 39.1499 76.4233 39.5683 75.7435C39.98 75.0746 40.1473 74.3374 40.1747 73.6202L37.1769 73.5056C37.1641 73.8409 37.0919 74.0435 37.0135 74.171C36.9417 74.2877 36.8129 74.4272 36.5282 74.5578C35.8856 74.8525 34.5924 75.0335 32.2067 74.7017L31.7933 77.6731ZM40.1747 73.6202C40.2221 72.3795 40.0052 71.2827 39.4093 70.4003C38.8013 69.5 37.9315 69.0183 37.0644 68.763C36.2254 68.516 35.3133 68.4577 34.484 68.4466C33.7442 68.4367 32.6747 68.4715 32.0024 68.4704L31.9976 71.4704C32.9826 71.472 33.5961 71.4349 34.4437 71.4463C35.2019 71.4565 35.7815 71.5127 36.2171 71.6409C36.6246 71.7609 36.8123 71.9152 36.9231 72.0793C37.0461 72.2614 37.2093 72.6574 37.1769 73.5056L40.1747 73.6202ZM30.5 69.9704V76.1874H33.5V69.9704H30.5ZM30.5 76.1874V81.5644H33.5V76.1874H30.5ZM54.2933 77.6731C56.8297 78.0259 58.8341 77.9472 60.2787 77.2847C61.0377 76.9367 61.6499 76.4233 62.0683 75.7435C62.48 75.0746 62.6473 74.3374 62.6747 73.6202L59.6769 73.5056C59.6641 73.8409 59.5919 74.0435 59.5135 74.171C59.4417 74.2877 59.3129 74.4272 59.0282 74.5578C58.3856 74.8525 57.0924 75.0336 54.7067 74.7017L54.2933 77.6731ZM62.6747 73.6202C62.7222 72.3795 62.5052 71.2827 61.9093 70.4003C61.3013 69.5 60.4315 69.0183 59.5644 68.763C58.7254 68.516 57.8133 68.4577 56.984 68.4466C56.2442 68.4367 55.1747 68.4715 54.5024 68.4704L54.4976 71.4704C55.4826 71.472 56.0961 71.4349 56.9437 71.4463C57.7019 71.4565 58.2815 71.5127 58.7171 71.6409C59.1246 71.7609 59.3123 71.9152 59.4231 72.0793C59.5461 72.2614 59.7093 72.6574 59.6769 73.5056L62.6747 73.6202ZM53 69.9704V76.1874H56V69.9704H53ZM53 76.1874V81.5644H56V76.1874H53ZM75.5 68.6945V81.9032H78.5V68.6945H75.5ZM77 83.4032H83.681V80.4032H77V83.4032ZM104.5 80.9445H98.25V83.9445H104.5V80.9445ZM98.25 71.4445H104.5V68.4445H98.25V71.4445ZM98.25 77.6672H104.5V74.6672H98.25V77.6672ZM99.75 82.4445V69.9445H96.75V82.4445H99.75Z" fill="black"/>
</svg>
