<svg width="102" height="112" viewBox="0 0 102 112" fill="none" xmlns="http://www.w3.org/2000/svg">
<path d="M44.5594 102.689C44.3082 101.9 43.4646 101.463 42.6752 101.715C41.8858 101.966 41.4494 102.809 41.7006 103.599L44.5594 102.689ZM59.1423 103.339C59.25 102.517 58.6714 101.764 57.85 101.657C57.0286 101.549 56.2754 102.128 56.1678 102.949L59.1423 103.339ZM34.1745 65.7417L35.1348 64.5894C35.0978 64.5586 35.0594 64.5295 35.0196 64.5024L34.1745 65.7417ZM63.2315 78.9386C63.2335 79.7671 63.9066 80.437 64.735 80.4351C65.5635 80.4331 66.2335 79.7599 66.2315 78.9315L63.2315 78.9386ZM37.3352 78.9114L37.3355 80.4114C38.1638 80.4112 38.8352 79.7397 38.8352 78.9114H37.3352ZM68.0097 65.0124L68.8249 66.2716L68.0097 65.0124ZM66.0115 66.8513L67.2785 67.6543L66.0115 66.8513ZM44.5909 78.9348C44.5909 79.7633 45.2625 80.4348 46.0909 80.4348C46.9193 80.4348 47.5909 79.7633 47.5909 78.9348H44.5909ZM53.5635 78.9348C53.5635 79.7633 54.2351 80.4348 55.0635 80.4348C55.892 80.4348 56.5635 79.7633 56.5635 78.9348H53.5635ZM55.9839 61.2358L54.746 60.3887L55.9839 61.2358ZM59.3892 54.6295L60.8892 54.6295L59.3892 54.6295ZM58.4688 57.6044L59.7067 58.4515L58.4688 57.6044ZM59.3892 46.7771H57.8892H59.3892ZM41.3176 46.7771L39.8176 46.7771L41.3176 46.7771ZM42.3815 57.6683L43.5786 56.7644L42.3815 57.6683ZM41.3176 54.4939H42.8176H41.3176ZM45.027 61.1719L43.83 62.0758L45.027 61.1719ZM74.877 29.0644C75.0779 29.8681 75.8924 30.3567 76.696 30.1558C77.4997 29.9548 77.9883 29.1404 77.7874 28.3367L74.877 29.0644ZM62.2573 10.2557C61.5241 9.87009 60.6171 10.1518 60.2315 10.885C59.8458 11.6182 60.1276 12.5252 60.8608 12.9109L62.2573 10.2557ZM89.4705 23.2759C88.6985 23.5763 88.3161 24.4456 88.6165 25.2177C88.9169 25.9897 89.7862 26.3721 90.5583 26.0717L89.4705 23.2759ZM97.3846 23.4159C98.1566 23.1155 98.539 22.2462 98.2386 21.4741C97.9382 20.702 97.0688 20.3197 96.2968 20.6201L97.3846 23.4159ZM92.0197 34.218C91.1931 34.2744 90.5688 34.99 90.6251 35.8165C90.6814 36.643 91.3971 37.2674 92.2236 37.2111L92.0197 34.218ZM100.062 36.6771C100.888 36.6208 101.513 35.9051 101.456 35.0786C101.4 34.2521 100.684 33.6277 99.8578 33.684L100.062 36.6771ZM90.6121 43.821C89.8523 43.4909 88.9687 43.8392 88.6386 44.599C88.3085 45.3589 88.6569 46.2424 89.4167 46.5725L90.6121 43.821ZM95.8132 49.3515C96.573 49.6816 97.4566 49.3333 97.7867 48.5734C98.1168 47.8136 97.7685 46.9301 97.0086 46.6L95.8132 49.3515ZM4.13577 46.4307C3.36256 46.7281 2.97683 47.596 3.27422 48.3692C3.57161 49.1424 4.4395 49.5281 5.21271 49.2307L4.13577 46.4307ZM12.061 46.5968C12.8342 46.2994 13.2199 45.4315 12.9225 44.6583C12.6252 43.8851 11.7573 43.4993 10.9841 43.7967L12.061 46.5968ZM2.04028 33.6878C1.21186 33.6878 0.540283 34.3594 0.540283 35.1878C0.540283 36.0162 1.21186 36.6878 2.04028 36.6878V33.6878ZM9.41536 36.6878C10.2438 36.6878 10.9154 36.0162 10.9154 35.1878C10.9154 34.3594 10.2438 33.6878 9.41536 33.6878V36.6878ZM4.17507 20.6243C3.4053 20.3181 2.53307 20.6939 2.22687 21.4637C1.92068 22.2334 2.29648 23.1057 3.06625 23.4118L4.17507 20.6243ZM10.8236 26.4975C11.5934 26.8037 12.4656 26.4279 12.7718 25.6582C13.078 24.8884 12.7022 24.0162 11.9324 23.71L10.8236 26.4975ZM38.9157 96.2152H63.1481V93.2152H38.9157V96.2152ZM63.7552 96.8224V99.9831H66.7552V96.8224H63.7552ZM63.1481 100.59H38.9157V103.59H63.1481V100.59ZM38.3085 99.9831V96.8224H35.3085V99.9831H38.3085ZM38.9157 100.59C38.5803 100.59 38.3085 100.318 38.3085 99.9831H35.3085C35.3085 101.975 36.9235 103.59 38.9157 103.59V100.59ZM63.7552 99.9831C63.7552 100.318 63.4834 100.59 63.1481 100.59V103.59C65.1402 103.59 66.7552 101.975 66.7552 99.9831H63.7552ZM63.1481 96.2152C63.4834 96.2152 63.7552 96.4871 63.7552 96.8224H66.7552C66.7552 94.8302 65.1402 93.2152 63.1481 93.2152V96.2152ZM38.9157 93.2152C36.9235 93.2152 35.3085 94.8302 35.3085 96.8224H38.3085C38.3085 96.4871 38.5803 96.2152 38.9157 96.2152V93.2152ZM36.8085 87.7866H64.2016V84.7866H36.8085V87.7866ZM64.8088 88.3937V92.6081H67.8088V88.3937H64.8088ZM64.2016 93.2152H36.8085V96.2152H64.2016V93.2152ZM36.2013 92.6081V88.3937H33.2013V92.6081H36.2013ZM36.8085 93.2152C36.4732 93.2152 36.2013 92.9434 36.2013 92.6081H33.2013C33.2013 94.6003 34.8163 96.2152 36.8085 96.2152V93.2152ZM64.8088 92.6081C64.8088 92.9434 64.537 93.2152 64.2016 93.2152V96.2152C66.1938 96.2152 67.8088 94.6003 67.8088 92.6081H64.8088ZM64.2016 87.7866C64.537 87.7866 64.8088 88.0584 64.8088 88.3937H67.8088C67.8088 86.4016 66.1938 84.7866 64.2016 84.7866V87.7866ZM36.8085 84.7866C34.8163 84.7866 33.2013 86.4016 33.2013 88.3937H36.2013C36.2013 88.0584 36.4732 87.7866 36.8085 87.7866V84.7866ZM36.8085 80.4115H64.2016V77.4115H36.8085V80.4115ZM64.8088 81.0187V84.1794H67.8088V81.0187H64.8088ZM36.2013 84.1794V81.0187H33.2013V84.1794H36.2013ZM36.8085 84.7866C36.4732 84.7866 36.2013 84.5147 36.2013 84.1794H33.2013C33.2013 86.1716 34.8163 87.7866 36.8085 87.7866V84.7866ZM64.8088 84.1794C64.8088 84.5147 64.537 84.7866 64.2016 84.7866V87.7866C66.1938 87.7866 67.8088 86.1716 67.8088 84.1794H64.8088ZM64.2016 80.4115C64.537 80.4115 64.8088 80.6833 64.8088 81.0187H67.8088C67.8088 79.0265 66.1938 77.4115 64.2016 77.4115V80.4115ZM36.8085 77.4115C34.8163 77.4115 33.2013 79.0265 33.2013 81.0187H36.2013C36.2013 80.6833 36.4732 80.4115 36.8085 80.4115V77.4115ZM41.7006 103.599C42.6878 106.701 44.1582 108.867 45.9739 110.148C47.8151 111.447 49.8726 111.737 51.7796 111.327C55.4619 110.536 58.645 107.134 59.1423 103.339L56.1678 102.949C55.8366 105.476 53.601 107.868 51.1498 108.394C49.99 108.643 48.802 108.472 47.7035 107.697C46.5795 106.903 45.4159 105.381 44.5594 102.689L41.7006 103.599ZM18.2904 36.7682C18.2904 18.9169 32.8199 3.5 50.5051 3.5V0.5C31.0476 0.5 15.2904 17.3779 15.2904 36.7682H18.2904ZM50.5051 3.5C68.1902 3.5 82.7197 18.9169 82.7197 36.7682H85.7197C85.7197 17.3779 69.9625 0.5 50.5051 0.5V3.5ZM82.7197 36.7682C82.7197 48.0165 76.1339 57.9662 67.1946 63.7533L68.8249 66.2716C78.4537 60.0381 85.7197 49.2155 85.7197 36.7682H82.7197ZM35.0196 64.5024C26.3618 58.5989 18.2904 47.6969 18.2904 36.7682H15.2904C15.2904 49.0412 24.1941 60.7518 33.3295 66.981L35.0196 64.5024ZM66.2315 78.9315C66.2284 77.6379 66.1715 76.432 66.1243 75.3362C66.0764 74.2263 66.0389 73.2398 66.0643 72.315C66.1144 70.4899 66.4083 69.0273 67.2785 67.6543L64.7446 66.0483C63.4756 68.0507 63.1235 70.1165 63.0654 72.2327C63.0367 73.2785 63.0796 74.3659 63.127 75.4655C63.1751 76.5793 63.2286 77.7187 63.2315 78.9386L66.2315 78.9315ZM38.8352 78.9114C38.8352 75.0298 38.8424 72.2141 38.411 70.0569C37.9472 67.7379 36.9723 66.1207 35.1348 64.5894L33.2143 66.894C34.5374 67.9967 35.1429 69.0134 35.4693 70.6453C35.828 72.4389 35.8352 74.8911 35.8352 78.9114H38.8352ZM67.1946 63.7533C66.3816 64.2796 65.4143 64.9916 64.7446 66.0483L67.2785 67.6543C67.589 67.1644 68.1008 66.7404 68.8249 66.2716L67.1946 63.7533ZM47.5909 78.9348V64.3463H44.5909V78.9348H47.5909ZM46.2241 60.268L43.5786 56.7644L41.1844 58.5722L43.83 62.0758L46.2241 60.268ZM42.8176 54.4939L42.8176 46.7771L39.8176 46.7771L39.8176 54.4939L42.8176 54.4939ZM46.5855 43.0092H54.1212V40.0092H46.5855V43.0092ZM57.8892 46.7771L57.8892 54.6295L60.8892 54.6295L60.8892 46.7771L57.8892 46.7771ZM57.2309 56.7574L54.746 60.3887L57.2219 62.0829L59.7067 58.4515L57.2309 56.7574ZM53.5635 64.2107V78.9348H56.5635V64.2107H53.5635ZM54.746 60.3887C53.9757 61.5144 53.5635 62.8466 53.5635 64.2107H56.5635C56.5635 63.4513 56.793 62.7096 57.2219 62.0829L54.746 60.3887ZM57.8892 54.6295C57.8892 55.3889 57.6597 56.1306 57.2309 56.7574L59.7067 58.4515C60.477 57.3258 60.8892 55.9936 60.8892 54.6295L57.8892 54.6295ZM54.1212 43.0092C56.2022 43.0092 57.8891 44.6962 57.8892 46.7771L60.8892 46.7771C60.8891 43.0393 57.8591 40.0092 54.1212 40.0092V43.0092ZM42.8176 46.7771C42.8176 44.6962 44.5046 43.0092 46.5855 43.0092V40.0092C42.8477 40.0092 39.8176 43.0393 39.8176 46.7771L42.8176 46.7771ZM43.5786 56.7644C43.0848 56.1104 42.8176 55.3133 42.8176 54.4939L39.8176 54.4939C39.8176 55.9658 40.2975 57.3976 41.1844 58.5722L43.5786 56.7644ZM47.5909 64.3463C47.5909 62.8744 47.1111 61.4427 46.2241 60.268L43.83 62.0758C44.3238 62.7298 44.5909 63.5269 44.5909 64.3463H47.5909ZM77.7874 28.3367C75.6714 19.8737 69.8601 14.2547 62.2573 10.2557L60.8608 12.9109C67.9871 16.6591 73.0341 21.6937 74.877 29.0644L77.7874 28.3367ZM90.5583 26.0717L97.3846 23.4159L96.2968 20.6201L89.4705 23.2759L90.5583 26.0717ZM92.2236 37.2111L100.062 36.6771L99.8578 33.684L92.0197 34.218L92.2236 37.2111ZM89.4167 46.5725L95.8132 49.3515L97.0086 46.6L90.6121 43.821L89.4167 46.5725ZM5.21271 49.2307L12.061 46.5968L10.9841 43.7967L4.13577 46.4307L5.21271 49.2307ZM2.04028 36.6878H9.41536V33.6878H2.04028V36.6878ZM3.06625 23.4118L10.8236 26.4975L11.9324 23.71L4.17507 20.6243L3.06625 23.4118ZM36.8088 80.4115L37.3355 80.4114L37.3349 77.4114L36.8082 77.4115L36.8088 80.4115Z" fill="black"/>
</svg>
