<svg width="114" height="114" viewBox="0 0 114 114" fill="none" xmlns="http://www.w3.org/2000/svg">
<path d="M3.68269 102.266L4.7439 103.326L3.68269 102.266ZM28.2027 77.7209L27.1415 76.6607L28.2027 77.7209ZM36.8542 85.5746L35.793 84.5145L36.8542 85.5746ZM12.2437 110.21L11.1825 109.15L12.2437 110.21ZM9.73549 111.77L10.0803 113.23L9.73549 111.77ZM4.77573 111.377L5.37654 110.003H5.37654L4.77573 111.377ZM2.80323 109.595L4.11419 108.867L2.80323 109.595ZM2.4729 103.989L1.06922 103.46H1.06922L2.4729 103.989ZM32.976 75.9678L33.0009 74.468H33.0009L32.976 75.9678ZM38.4661 82.2203L39.9568 82.3869L38.4661 82.2203ZM32.8758 75.0214C32.2977 75.6147 32.3099 76.5644 32.9033 77.1426C33.4966 77.7207 34.4462 77.7085 35.0244 77.1151L32.8758 75.0214ZM43.2981 68.6247C43.8762 68.0314 43.8639 67.0817 43.2706 66.5035C42.6773 65.9254 41.7276 65.9376 41.1495 66.531L43.2981 68.6247ZM47.5618 73.0099C48.1446 72.4212 48.1398 71.4714 47.5511 70.8886C46.9623 70.3058 46.0126 70.3106 45.4298 70.8993L47.5618 73.0099ZM37.2631 79.1489C36.6802 79.7377 36.685 80.6874 37.2738 81.2702C37.8625 81.853 38.8123 81.8482 39.3951 81.2595L37.2631 79.1489ZM17.4889 34.1235C16.7061 34.3949 16.2916 35.2494 16.5629 36.0321C16.8343 36.8148 17.6888 37.2294 18.4715 36.958L17.4889 34.1235ZM18.6055 20.5968C17.82 20.3338 16.9699 20.7575 16.707 21.5431C16.4441 22.3287 16.8678 23.1787 17.6533 23.4417L18.6055 20.5968ZM26.7162 9.13843C26.2202 8.47493 25.2802 8.33919 24.6167 8.83523C23.9532 9.33128 23.8175 10.2713 24.3135 10.9348L26.7162 9.13843ZM74.3881 37.3057L73.7866 35.9316C73.7759 35.9363 73.7653 35.9411 73.7548 35.946L74.3881 37.3057ZM76.8696 45.759L76.4487 44.3193C75.7327 44.5286 75.2794 45.2322 75.3846 45.9707L76.8696 45.759ZM68.9293 45.759L70.4143 45.9707C70.4243 45.9006 70.4293 45.8299 70.4293 45.759H68.9293ZM110.475 41.7512C110.475 62.8791 93.3754 80.0025 72.2876 80.0025V83.0025C95.0368 83.0025 113.475 64.5314 113.475 41.7512H110.475ZM72.2876 80.0025C51.1997 80.0025 34.1005 62.8791 34.1005 41.7512H31.1005C31.1005 64.5314 49.5383 83.0025 72.2876 83.0025V80.0025ZM34.1005 41.7512C34.1005 20.6234 51.1997 3.5 72.2876 3.5V0.5C49.5383 0.5 31.1005 18.9711 31.1005 41.7512H34.1005ZM72.2876 3.5C93.3754 3.5 110.475 20.6234 110.475 41.7512H113.475C113.475 18.9711 95.0368 0.5 72.2876 0.5V3.5ZM101.716 41.6149C101.716 57.9817 88.47 71.2455 72.1355 71.2455V74.2455C90.1315 74.2455 104.716 59.634 104.716 41.6149H101.716ZM72.1355 71.2455C55.8011 71.2455 42.5552 57.9817 42.5552 41.6149H39.5552C39.5552 59.634 54.1396 74.2455 72.1355 74.2455V71.2455ZM42.5552 41.6149C42.5552 25.2481 55.8011 11.9843 72.1355 11.9843V8.98433C54.1396 8.98433 39.5552 23.5958 39.5552 41.6149H42.5552ZM72.1355 11.9843C88.47 11.9843 101.716 25.2481 101.716 41.6149H104.716C104.716 23.5958 90.1315 8.98433 72.1355 8.98433V11.9843ZM75.1408 60.773C75.1408 62.1041 74.0641 63.1791 72.741 63.1791V66.1791C75.7255 66.1791 78.1408 63.7564 78.1408 60.773H75.1408ZM72.741 63.1791C71.4179 63.1791 70.3411 62.1041 70.3411 60.773H67.3411C67.3411 63.7564 69.7565 66.1791 72.741 66.1791V63.1791ZM70.3411 60.773C70.3411 59.4418 71.4179 58.3668 72.741 58.3668V55.3668C69.7565 55.3668 67.3411 57.7895 67.3411 60.773H70.3411ZM72.741 58.3668C74.0641 58.3668 75.1408 59.4418 75.1408 60.773H78.1408C78.1408 57.7895 75.7255 55.3668 72.741 55.3668V58.3668ZM4.7439 103.326L29.2639 78.781L27.1415 76.6607L2.62149 101.206L4.7439 103.326ZM35.793 84.5145L11.1825 109.15L13.3049 111.271L37.9154 86.6347L35.793 84.5145ZM9.39071 110.311C8.37475 110.551 6.89809 110.668 5.37654 110.003L4.17491 112.752C6.48918 113.763 8.68005 113.561 10.0803 113.23L9.39071 110.311ZM4.11419 108.867C3.16927 107.167 3.50249 105.511 3.87657 104.518L1.06922 103.46C0.539086 104.868 -0.0563781 107.539 1.49226 110.324L4.11419 108.867ZM32.9511 77.4676C35.3768 77.5079 37.246 79.6322 36.9754 82.0537L39.9568 82.3869C40.4233 78.2126 37.2005 74.5378 33.0009 74.468L32.9511 77.4676ZM5.37654 110.003C4.83872 109.768 4.39053 109.363 4.11419 108.867L1.49226 110.324C2.09718 111.412 3.05279 112.261 4.17491 112.752L5.37654 110.003ZM37.9154 86.6347C39.0576 85.4914 39.7773 83.9934 39.9568 82.3869L36.9754 82.0537C36.8713 82.9849 36.4542 83.8527 35.793 84.5145L37.9154 86.6347ZM29.2639 78.781C30.06 77.9841 31.6246 77.4456 32.9511 77.4676L33.0009 74.468C31.0736 74.436 28.6471 75.1536 27.1415 76.6607L29.2639 78.781ZM2.62149 101.206C2.0653 101.763 1.43188 102.498 1.06922 103.46L3.87657 104.518C4.01558 104.149 4.29511 103.775 4.7439 103.326L2.62149 101.206ZM11.1825 109.15C10.552 109.781 9.97283 110.173 9.39071 110.311L10.0803 113.23C11.455 112.906 12.5133 112.063 13.3049 111.271L11.1825 109.15ZM35.0244 77.1151L43.2981 68.6247L41.1495 66.531L32.8758 75.0214L35.0244 77.1151ZM45.4298 70.8993L37.2631 79.1489L39.3951 81.2595L47.5618 73.0099L45.4298 70.8993ZM18.4715 36.958L25.2927 34.5934L24.3101 31.7589L17.4889 34.1235L18.4715 36.958ZM17.6533 23.4417L24.7494 25.8167L25.7016 22.9719L18.6055 20.5968L17.6533 23.4417ZM24.3135 10.9348L29.3187 17.6296L31.7214 15.8333L26.7162 9.13843L24.3135 10.9348ZM69.4366 32.3332C69.4366 30.4126 70.9897 28.8607 72.8993 28.8607V25.8607C69.3273 25.8607 66.4366 28.7613 66.4366 32.3332H69.4366ZM72.8993 28.8607C74.8089 28.8607 76.362 30.4126 76.362 32.3332H79.362C79.362 28.7613 76.4714 25.8607 72.8993 25.8607V28.8607ZM76.362 32.3332C76.362 32.9471 76.0921 33.6956 75.5695 34.4137C75.049 35.129 74.3794 35.6721 73.7866 35.9316L74.9897 38.6798C76.1496 38.172 77.217 37.2484 77.9952 36.179C78.7714 35.1124 79.362 33.7583 79.362 32.3332H76.362ZM61.0002 32.5382C61.0002 25.7374 65.9356 20.3865 72.5478 20.3865V17.3865C64.1051 17.3865 58.0002 24.2597 58.0002 32.5382H61.0002ZM72.5478 20.3865C79.2445 20.3865 84.6774 25.8247 84.6774 32.5382H87.6774C87.6774 24.1724 80.9059 17.3865 72.5478 17.3865V20.3865ZM84.6774 32.5382C84.6774 38.1691 81.3938 42.8737 76.4487 44.3193L77.2905 47.1988C83.6758 45.3321 87.6774 39.3259 87.6774 32.5382H84.6774ZM75.3846 45.9707C75.7597 48.6015 74.126 49.7288 72.8993 49.7288V52.7288C76.0579 52.7288 78.9721 49.878 78.3546 45.5473L75.3846 45.9707ZM72.8993 49.7288C71.6727 49.7288 70.0392 48.6017 70.4143 45.9707L67.4444 45.5473C66.8269 49.8779 69.7406 52.7288 72.8993 52.7288V49.7288ZM66.4366 32.3332C66.4366 33.118 66.1596 34.0348 65.63 34.7251C65.1293 35.3777 64.4305 35.8057 63.4704 35.8057V38.8057C65.4879 38.8057 67.0222 37.8391 68.0102 36.5512C68.9693 35.3011 69.4366 33.7316 69.4366 32.3332H66.4366ZM63.4704 35.8057C62.9944 35.8057 62.3943 35.5119 61.8486 34.8155C61.3087 34.1264 61.0002 33.2535 61.0002 32.5382H58.0002C58.0002 34.0062 58.587 35.517 59.4872 36.6658C60.3817 37.8074 61.7667 38.8057 63.4704 38.8057V35.8057ZM70.4293 45.759C70.4293 42.5872 72.2874 39.9389 75.0215 38.6654L73.7548 35.946C70.0413 37.6756 67.4293 41.3373 67.4293 45.759H70.4293ZM32.7936 90.2003L24.2079 81.5956L22.0842 83.7146L30.6699 92.3193L32.7936 90.2003Z" fill="black"/>
</svg>
