<svg width="152" height="110" viewBox="0 0 152 110" xmlns="http://www.w3.org/2000/svg">
<path d="M19.75 59.998V60.998C19.7931 60.998 19.8363 60.9952 19.879 60.9896L19.75 59.998ZM22.41 59.6518V58.6518C22.3668 58.6518 22.3237 58.6546 22.2809 58.6602L22.41 59.6518ZM12.1933 101.699C12.7123 101.888 13.2861 101.62 13.4749 101.101C13.6636 100.582 13.3959 100.008 12.8769 99.8193L12.1933 101.699ZM27.4491 51.529C27.3743 52.0762 27.7573 52.5804 28.3045 52.6552C28.8517 52.73 29.3559 52.347 29.4306 51.7998L27.4491 51.529ZM120.405 51.7998C120.48 52.347 120.984 52.73 121.531 52.6552C122.078 52.5804 122.461 52.0762 122.387 51.529L120.405 51.7998ZM19.75 51.6646L18.7522 51.5981C18.7507 51.6203 18.75 51.6425 18.75 51.6646H19.75ZM79.1667 101.665C79.1667 102.217 79.6144 102.665 80.1667 102.665C80.7189 102.665 81.1667 102.217 81.1667 101.665H79.1667ZM96.7497 80.7409L95.8901 81.252L96.7497 80.7409ZM99.0557 89.8681L100.055 89.9123V89.9123L99.0557 89.8681ZM98.784 92.6336L97.7927 92.5022L98.784 92.6336ZM81.1667 64.1646C81.1667 63.6124 80.7189 63.1646 80.1667 63.1646C79.6144 63.1646 79.1667 63.6124 79.1667 64.1646H81.1667ZM94.4055 78.2914L94.9677 77.4644L94.4055 78.2914ZM51.2631 77.3558C51.0161 77.8498 51.2163 78.4504 51.7103 78.6974C52.2043 78.9444 52.805 78.7442 53.0519 78.2502L51.2631 77.3558ZM68.8246 79.8864H69.8246V79.8255L69.8172 79.765L68.8246 79.8864ZM53.499 88.7401L54.1687 89.4827L53.499 88.7401ZM51.2248 92.1178L50.2575 91.8644L51.2248 92.1178ZM58.4076 100.72V101.72V100.72ZM68.8246 92.2008L69.8246 92.2009V92.2008H68.8246ZM67.8242 100.72C67.8241 101.272 68.2718 101.72 68.8241 101.72C69.3764 101.72 69.8241 101.272 69.8242 100.72L67.8242 100.72ZM19.879 60.9896L22.539 60.6435L22.2809 58.6602L19.621 59.0063L19.879 60.9896ZM22.41 60.6518C25.0944 60.6518 27.5179 63.238 27.5179 66.7572H29.5179C29.5179 62.428 26.4722 58.6518 22.41 58.6518V60.6518ZM27.5179 66.7572V101.147H29.5179V66.7572H27.5179ZM27.5179 101.147C27.5179 104.666 25.0944 107.252 22.41 107.252V109.252C26.4722 109.252 29.5179 105.476 29.5179 101.147H27.5179ZM22.41 107.252H18.6909V109.252H22.41V107.252ZM18.6909 107.252C16.0064 107.252 13.583 104.666 13.583 101.147H11.583C11.583 105.476 14.6287 109.252 18.6909 109.252V107.252ZM13.583 101.147V66.7572H11.583V101.147H13.583ZM13.583 66.7572C13.583 65.1358 14.3642 63.7053 15.5601 62.6585C16.7653 61.6036 18.3278 60.998 19.75 60.998V58.998C17.7989 58.998 15.7779 59.8099 14.2428 61.1536C12.6986 62.5053 11.583 64.4544 11.583 66.7572H13.583ZM2 82.9146C2 75.0602 6.56015 70.0117 12.9248 67.697L12.2412 65.8174C5.21818 68.3716 0 74.087 0 82.9146H2ZM12.8769 99.8193C6.62238 97.5446 2 90.8841 2 82.9146H0C0 91.6272 5.0602 99.1046 12.1933 101.699L12.8769 99.8193ZM129.254 60.7346H132.249V58.7346H129.254V60.7346ZM132.249 60.7346C135.071 60.7346 138.081 63.4683 138.081 66.84H140.081C140.081 62.3633 136.175 58.7346 132.249 58.7346V60.7346ZM138.081 66.84V101.23H140.081V66.84H138.081ZM138.081 101.23C138.081 104.749 135.657 107.335 132.973 107.335V109.335C137.035 109.335 140.081 105.559 140.081 101.23H138.081ZM132.973 107.335H129.254V109.335H132.973V107.335ZM129.254 107.335C126.569 107.335 124.146 104.749 124.146 101.23H122.146C122.146 105.559 125.191 109.335 129.254 109.335V107.335ZM124.146 101.23V66.84H122.146V101.23H124.146ZM124.146 66.84C124.146 63.3208 126.569 60.7346 129.254 60.7346V58.7346C125.191 58.7346 122.146 62.5108 122.146 66.84H124.146ZM138.666 67.75C144.603 70.4535 150 75.6071 150 82.9146H152C152 74.4845 145.774 68.7894 139.495 65.9299L138.666 67.75ZM150 82.9146C150 86.6073 148.633 90.2978 146.505 93.4163C144.374 96.5378 141.528 99.0163 138.666 100.32L139.495 102.14C142.741 100.662 145.854 97.9172 148.157 94.5437C150.461 91.1672 152 87.0909 152 82.9146H150ZM29.4306 51.7998C32.4897 29.4122 51.6902 12.1625 74.9178 12.1625V10.1625C50.6766 10.1625 30.6416 28.1642 27.4491 51.529L29.4306 51.7998ZM74.9178 12.1625C98.1455 12.1625 117.346 29.4122 120.405 51.7998L122.387 51.529C119.194 28.1642 99.159 10.1625 74.9178 10.1625V12.1625ZM20.7478 51.7312C21.7726 36.3582 28.1178 24.1126 37.8776 15.7035C47.6458 7.28701 60.8932 2.66467 75.7886 2.66467V0.664673C60.4821 0.664673 46.7518 5.41733 36.5721 14.1883C26.3838 22.9667 19.8107 35.7212 18.7522 51.5981L20.7478 51.7312ZM75.7886 2.66467C105.589 2.66467 131.249 23.1902 131.249 51.6646H133.249C133.249 21.8058 106.392 0.664673 75.7886 0.664673V2.66467ZM18.75 51.6646L18.75 59.998L20.75 59.998L20.75 51.6646L18.75 51.6646ZM131.249 51.6646V59.7346H133.249V51.6646H131.249ZM79.1667 90.5055V101.665H81.1667V90.5055H79.1667ZM95.8901 81.252C97.9368 84.6942 98.1351 88.0545 98.0567 89.8238L100.055 89.9123C100.144 87.9056 99.9208 84.1177 97.6092 80.2299L95.8901 81.252ZM97.7927 92.5022C97.3759 95.6482 96.2172 97.7389 94.7912 98.9763C93.3718 100.208 91.6044 100.669 89.7923 100.417C86.1536 99.9109 82.2135 96.4636 81.152 90.3348L79.1813 90.6761C80.3598 97.4805 84.8473 101.748 89.5166 102.398C91.8586 102.724 94.2154 102.124 96.102 100.487C97.982 98.8554 99.311 96.27 99.7754 92.7649L97.7927 92.5022ZM81.1667 90.5055V89.537H79.1667V90.5055H81.1667ZM79.1667 64.1646V89.537H81.1667V64.1646H79.1667ZM98.0567 89.8238C98.0178 90.7033 97.9136 91.5901 97.7927 92.5022L99.7754 92.7649C99.8978 91.8411 100.012 90.883 100.055 89.9123L98.0567 89.8238ZM93.8433 79.1184C94.5579 79.6042 95.4649 80.5367 95.8901 81.252L97.6092 80.2299C97.0185 79.2363 95.8972 78.0963 94.9677 77.4644L93.8433 79.1184ZM94.9677 77.4644C93.0491 76.1602 91.0558 75.6742 89.1412 75.8766C87.2389 76.0777 85.4896 76.9496 84.0197 78.2342C81.0952 80.79 79.1667 85.0665 79.1667 89.537H81.1667C81.1667 85.597 82.8798 81.8865 85.3358 79.7401C86.5561 78.6737 87.9319 78.0156 89.3514 77.8655C90.7587 77.7168 92.2841 78.0585 93.8433 79.1184L94.9677 77.4644ZM53.0519 78.2502C54.9568 74.4405 58.4445 72.8303 61.5118 73.162C64.5399 73.4894 67.3081 75.7219 67.832 80.0077L69.8172 79.765C69.1832 74.5791 65.7012 71.6033 61.7268 71.1736C57.7918 70.7481 53.5249 72.8322 51.2631 77.3558L53.0519 78.2502ZM67.9302 79.4391C66.229 82.8411 63.8139 83.9344 61.1452 84.6713C60.4614 84.8601 59.7761 85.0212 59.0632 85.1958C58.3596 85.3682 57.6377 85.5518 56.9278 85.7777C55.5037 86.2311 54.0804 86.8692 52.8293 87.9974L54.1687 89.4827C55.1291 88.6166 56.2576 88.09 57.5345 87.6835C58.1753 87.4795 58.8412 87.3093 59.539 87.1384C60.2274 86.9698 60.9569 86.7982 61.6775 86.5992C64.6264 85.7849 67.6627 84.4458 69.719 80.3337L67.9302 79.4391ZM50.2575 91.8644C49.7822 93.6785 49.9067 96.115 51.1295 98.1338C52.3924 100.219 54.7426 101.72 58.4076 101.72L58.4076 99.7198C55.3586 99.7198 53.6993 98.5159 52.8402 97.0976C51.9411 95.6134 51.8312 93.7489 52.1922 92.3713L50.2575 91.8644ZM67.8246 79.8864V92.2008H69.8246V79.8864H67.8246ZM67.8246 92.2008L67.8242 100.72L69.8242 100.72L69.8246 92.2009L67.8246 92.2008ZM58.4076 101.72C62.9766 101.72 65.8521 99.3621 67.5472 97.0519C68.3892 95.9042 68.9471 94.7623 69.2948 93.9094C69.4692 93.4816 69.5923 93.1227 69.6727 92.8669C69.713 92.7389 69.7427 92.6364 69.7628 92.5637C69.7729 92.5273 69.7806 92.4983 69.7861 92.4773C69.7889 92.4668 69.791 92.4582 69.7927 92.4517C69.7935 92.4485 69.7942 92.4457 69.7947 92.4435C69.795 92.4424 69.7952 92.4414 69.7955 92.4406C69.7956 92.4402 69.7957 92.4396 69.7957 92.4394C69.7959 92.4389 69.796 92.4385 68.8246 92.2008C67.8533 91.9632 67.8534 91.9628 67.8535 91.9624C67.8535 91.9623 67.8536 91.962 67.8536 91.9618C67.8537 91.9615 67.8537 91.9613 67.8538 91.9612C67.8538 91.9611 67.8537 91.9614 67.8535 91.9623C67.8531 91.964 67.8521 91.9676 67.8507 91.9732C67.8478 91.9844 67.8428 92.0033 67.8355 92.0293C67.8211 92.0814 67.7979 92.1619 67.7649 92.2668C67.6988 92.4769 67.594 92.7836 67.4428 93.1544C67.1393 93.8988 66.6553 94.8866 65.9347 95.8687C64.5045 97.818 62.1716 99.7198 58.4076 99.7198L58.4076 101.72ZM52.8293 87.9974C51.7433 88.9767 50.6759 90.2674 50.2575 91.8644L52.1922 92.3713C52.4694 91.3132 53.2163 90.3415 54.1687 89.4827L52.8293 87.9974Z"/>
</svg>
