<svg xmlns="http://www.w3.org/2000/svg" width="129" height="92" viewBox="0 0 129 92">
  <path d="M16.8197 50.2169v1c.0432 0 .0863-.0028.1291-.0083l-.1291-.9917Zm2.2443-.292v-1c-.0432 0-.0863.0028-.1291.0083l.1291.9917Zm-8.6734 35.6227c.519.1888 1.0928-.0789 1.2815-.598.1888-.519-.0789-1.0928-.5979-1.2815l-.6836 1.8795Zm12.7701-42.4973c-.0748.5472.3082 1.0515.8554 1.1262.5472.0748 1.0514-.3082 1.1262-.8554l-1.9816-.2708Zm78.4283.2708c.075.5472.579.9302 1.127.8554.547-.0747.93-.579.855-1.1262l-1.982.2708Zm-84.7693-.1352-.9978-.0665a.9846.9846 0 0 0-.0022.0665h1Zm49.9747 42.186c0 .5522.4477 1 1 1s1-.4478 1-1h-2Zm14.9914-17.6538-.8596.5111.8596-.5111Zm1.9456 7.7008.9991.0442-.9991-.0442Zm-.2292 2.3333-.9913-.1313.9913.1313ZM68.7944 53.7324c0-.5523-.4477-1-1-1s-1 .4477-1 1h2Zm11.0135 11.919.5622-.827-.5622.827Zm-36.5398-.8593c-.247.494-.0467 1.0947.4472 1.3417.494.247 1.0947.0468 1.3417-.4472l-1.7889-.8945Zm14.9568 2.205h1v-.0609l-.0074-.0604-.9926.1213Zm-12.9305 7.4701.6696.7426-.6696-.7426Zm-1.9188 2.8499-.9673-.2535.9673.2535Zm6.0603 7.2576v1-1Zm8.789-7.1876h1-1Zm-1.0004 7.1875c0 .5523.4477 1 .9999 1.0001.5523 0 1.0001-.4477 1.0001-1l-2-.0001Zm-40.2757-33.366 2.2442-.2921-.2581-1.9833-2.2442.2921.2581 1.9833Zm2.1152-.2837c2.1572 0 4.1534 2.089 4.1534 4.9949h2c0-3.7159-2.6184-6.9949-6.1534-6.9949v2Zm4.1534 4.9949v29.0154h2V55.9198h-2Zm0 29.0154c0 2.906-1.9962 4.995-4.1534 4.995v2c3.535 0 6.1534-3.279 6.1534-6.995h-2Zm-4.1534 4.995h-3.1379v2h3.1379v-2Zm-3.1379 0c-2.1572 0-4.1533-2.089-4.1533-4.995h-2c0 3.716 2.6183 6.995 6.1533 6.995v-2Zm-4.1533-4.995V55.9198h-2v29.0154h2Zm0-29.0154c0-1.3148.6329-2.4811 1.6148-3.3406.991-.8675 2.2735-1.3623 3.4321-1.3623v-2c-1.6875 0-3.4285.7012-4.7494 1.8574-1.3301 1.1643-2.2975 2.8494-2.2975 4.8455h2ZM2 69.5521c0-6.5508 3.796-10.7582 9.1146-12.6925L10.431 54.98C4.454 57.1538 0 62.0281 0 69.5521h2Zm9.0742 14.116C5.8658 81.7738 2 76.2181 2 69.5521H0c0 7.409 4.3036 13.7817 10.3906 15.9955l.6836-1.8795ZM109.21 50.9947h2.527v-2h-2.527v2Zm2.527 0c2.295 0 4.764 2.2365 4.764 4.9949h2c0-3.8634-3.365-6.9949-6.764-6.9949v2Zm4.764 4.9949v29.0155h2V55.9896h-2Zm0 29.0155c0 2.9059-1.996 4.9949-4.153 4.9949v2c3.535 0 6.153-3.279 6.153-6.9949h-2ZM112.348 90h-3.138v2h3.138v-2Zm-3.138 0c-2.157 0-4.154-2.089-4.154-4.9949h-2c0 3.7159 2.619 6.9949 6.154 6.9949v-2Zm-4.154-4.9949V55.9896h-2v29.0155h2Zm0-29.0155c0-2.9059 1.997-4.9949 4.154-4.9949v-2c-3.535 0-6.154 3.279-6.154 6.9949h2Zm12.031.9101c4.982 2.2688 9.471 6.5746 9.471 12.6524h2c0-7.2003-5.318-12.0477-10.642-14.4726l-.829 1.8202Zm9.471 12.6524c0 3.0778-1.14 6.1614-2.922 8.7724-1.784 2.614-4.164 4.6844-6.549 5.7705l.829 1.8202c2.768-1.2607 5.416-3.5973 7.372-6.4633 1.958-2.869 3.27-6.3384 3.27-9.8998h-2ZM25.1423 43.3211c2.5706-18.8125 18.7051-33.3076 38.2235-33.3076v-2c-20.5319 0-37.501 15.2472-40.2051 35.0368l1.9816.2708Zm38.2235-33.3076c19.5185 0 35.653 14.4951 38.2232 33.3076l1.982-.2708C100.867 23.2607 83.8978 8.0135 63.3658 8.0135v2ZM17.8175 43.2524c.8621-12.9311 6.1978-23.2231 14.3988-30.2892C40.4258 5.8898 51.5651 2 64.1005 2V0C51.154 0 39.5318 4.02 30.9108 11.4481c-8.6295 7.4353-14.1932 18.2362-15.0889 31.6713l1.9956.133ZM64.1005 2c25.0809 0 46.6365 17.2697 46.6365 41.1859h2C112.737 17.8853 89.9837 0 64.1005 0v2ZM15.8197 43.1859v7.031h2v-7.031h-2Zm94.9173 0v6.8088h2v-6.8088h-2ZM66.7944 75.9567v9.4152h2v-9.4152h-2Zm14.1318-7.7275c1.7061 2.8694 1.8715 5.6711 1.8062 7.1454l1.9981.0885c.0757-1.7116-.1141-4.941-2.0852-8.256l-1.7191 1.0221Zm1.5847 9.3917c-.348 2.6262-1.3123 4.3515-2.48 5.3647-1.161 1.0076-2.6061 1.3861-4.0936 1.1791-2.9896-.4161-6.2711-3.2605-7.1576-8.3787l-1.9706.3413c1.0034 5.7938 4.8323 9.4588 8.8525 10.0183 2.0173.2807 4.0519-.2364 5.6801-1.6494 1.6217-1.4072 2.7563-3.6273 3.1519-6.6127l-1.9827-.2626Zm-13.7165-1.6642v-.8171h-2v.8171h2Zm-2-22.2243v21.4072h2V53.7324h-2Zm15.938 21.6422c-.0325.735-.1197 1.4776-.2215 2.2463l1.9827.2626c.1033-.7803.2003-1.5942.2369-2.4204l-1.9981-.0885Zm-3.4867-8.8961c.5862.3984 1.3347 1.169 1.6805 1.7507l1.7191-1.0221c-.5113-.8601-1.4741-1.8381-2.2752-2.3827l-1.1244 1.6541Zm1.1244-1.6541c-1.6468-1.1195-3.3651-1.5407-5.0202-1.3658-1.6427.1736-3.1478.926-4.4075 2.0269-2.5041 2.1884-4.148 5.8408-4.148 9.6541h2c0-3.2828 1.4285-6.3692 3.4641-8.1482 1.0101-.8827 2.1417-1.4213 3.3017-1.5439 1.1477-.1213 2.3982.1558 3.6855 1.031l1.1244-1.6541Zm-35.3131.8622c1.5792-3.1586 4.461-4.4801 6.9812-4.2076 2.4809.2683 4.7606 2.0938 5.1941 5.6395l1.9852-.2427c-.5435-4.4458-3.5372-7.0146-6.9644-7.3852-3.3878-.3663-7.0488 1.4291-8.985 5.3015l1.7889.8945Zm12.2735.8633c-1.4076 2.8148-3.3967 3.7181-5.6265 4.3337-.574.1585-1.1488.2936-1.7522.4414-.5941.1455-1.2076.3015-1.8119.4939-1.213.3862-2.4369.9332-3.5152 1.9056l1.3393 1.4853c.7877-.7103 1.7167-1.1458 2.7827-1.4852.5351-.1704 1.0926-.3129 1.6809-.457.5789-.1418 1.1978-.2874 1.8087-.4561 2.51-.693 5.1202-1.8421 6.883-5.3671l-1.7888-.8945ZM42.4083 77.0636c-.41 1.5647-.3038 3.6652.7533 5.4102 1.097 1.811 3.1339 3.1009 6.2743 3.1009v-2c-2.5244 0-3.8704-.9925-4.5637-2.1371-.7333-1.2105-.8248-2.7389-.5292-3.8671l-1.9347-.5069Zm14.8166-10.0665v10.39h2v-10.39h-2Zm0 10.3899-.0004 7.1876 2 .0001.0004-7.1876-2-.0001Zm-7.789 8.1877c3.9178 0 6.3864-2.0249 7.8372-4.0023.7199-.9812 1.1964-1.9567 1.4932-2.6848a11.583 11.583 0 0 0 .3232-.8917 7.9505 7.9505 0 0 0 .0776-.2609c.0087-.0315.0154-.0568.0203-.0753l.0058-.0227.0019-.0075a.0586.0586 0 0 1 .0006-.0027l.0003-.0011c.0001-.0005.0003-.001-.9711-.2386-.9714-.2377-.9713-.2381-.9712-.2385l.0002-.0006.0002-.0008-.0001.0003a5.9305 5.9305 0 0 1-.0723.2484 9.651 9.651 0 0 1-.2674.7367c-.2526.6196-.6552 1.441-1.2537 2.2567-1.186 1.6164-3.1119 3.1854-6.2247 3.1854v2Zm-4.8112-11.8502c-.9267.8357-1.8523 1.9496-2.2164 3.3391l1.9347.5069c.2229-.8506.828-1.6455 1.621-2.3607l-1.3393-1.4853Z"/>
</svg>
