<svg width="114" height="98" viewBox="0 0 114 98" fill="none" xmlns="http://www.w3.org/2000/svg">
<path d="M23.7147 19.066C24.5431 19.066 25.2147 18.3945 25.2147 17.566C25.2147 16.7376 24.5431 16.066 23.7147 16.066V19.066ZM90.1234 16.066C89.295 16.066 88.6234 16.7376 88.6234 17.566C88.6234 18.3945 89.295 19.066 90.1234 19.066V16.066ZM23.1895 26.3302C24.0179 26.3302 24.6895 25.6586 24.6895 24.8302C24.6895 24.0018 24.0179 23.3302 23.1895 23.3302V26.3302ZM90.1234 23.3302C89.295 23.3302 88.6234 24.0018 88.6234 24.8302C88.6234 25.6586 89.295 26.3302 90.1234 26.3302V23.3302ZM90.1234 13.4151H91.6234C91.6234 12.5867 90.9519 11.9151 90.1234 11.9151V13.4151ZM90.1234 55.2064V56.7064C90.9519 56.7064 91.6234 56.0348 91.6234 55.2064H90.1234ZM23.7083 55.2064H22.2083C22.2083 56.0348 22.8799 56.7064 23.7083 56.7064V55.2064ZM23.7083 13.4151V11.9151C22.8799 11.9151 22.2083 12.5867 22.2083 13.4151H23.7083ZM28.2676 14.9151C29.096 14.9151 29.7676 14.2435 29.7676 13.4151C29.7676 12.5867 29.096 11.9151 28.2676 11.9151V14.9151ZM84.9348 11.9151C84.1063 11.9151 83.4348 12.5867 83.4348 13.4151C83.4348 14.2435 84.1063 14.9151 84.9348 14.9151V11.9151ZM34.2073 61.5551C33.3789 61.5551 32.7073 62.2267 32.7073 63.0551C32.7073 63.8836 33.3789 64.5551 34.2073 64.5551V61.5551ZM33.883 68.0775C33.0546 68.0775 32.383 68.7491 32.383 69.5775C32.383 70.4059 33.0546 71.0775 33.883 71.0775V68.0775ZM28.897 2L29.449 0.605268C28.9871 0.422451 28.4647 0.480179 28.0538 0.759431C27.643 1.03868 27.397 1.50323 27.397 2H28.897ZM84.9348 2H86.4348C86.4348 1.4997 86.1853 1.03233 85.7697 0.753847C85.354 0.475369 84.8269 0.422446 84.3642 0.612738L84.9348 2ZM84.9348 45.9551L85.3831 47.3866C86.0088 47.1906 86.4348 46.6109 86.4348 45.9551H84.9348ZM57.4532 54.5623L57.0203 55.9985C57.3079 56.0852 57.6149 56.0835 57.9015 55.9937L57.4532 54.5623ZM28.897 45.9551H27.397C27.397 46.6168 27.8306 47.2004 28.4641 47.3913L28.897 45.9551ZM104.189 18.6038V82.6216H107.189V18.6038H104.189ZM104.652 82.1593H9.18004V85.1593H104.652V82.1593ZM9.6423 82.6216V18.6038H6.6423V82.6216H9.6423ZM9.18004 19.066H23.7147V16.066H9.18004V19.066ZM90.1234 19.066H104.652V16.066H90.1234V19.066ZM9.18004 82.1593C9.43534 82.1593 9.6423 82.3663 9.6423 82.6216H6.6423C6.6423 84.0231 7.77848 85.1593 9.18004 85.1593V82.1593ZM104.189 82.6216C104.189 82.3663 104.396 82.1593 104.652 82.1593V85.1593C106.053 85.1593 107.189 84.0231 107.189 82.6216H104.189ZM107.189 18.6038C107.189 17.2022 106.053 16.066 104.652 16.066V19.066C104.396 19.066 104.189 18.8591 104.189 18.6038H107.189ZM9.6423 18.6038C9.6423 18.8591 9.43534 19.066 9.18004 19.066V16.066C7.77849 16.066 6.6423 17.2022 6.6423 18.6038H9.6423ZM96.9253 27.9434V74.6315H99.9253V27.9434H96.9253ZM95.3121 76.2447H18.5197V79.2447H95.3121V76.2447ZM16.9065 74.6315V27.9434H13.9065V74.6315H16.9065ZM18.5197 26.3302H23.1895V23.3302H18.5197V26.3302ZM90.1234 26.3302H95.3121V23.3302H90.1234V26.3302ZM18.5197 76.2447C17.6287 76.2447 16.9065 75.5224 16.9065 74.6315H13.9065C13.9065 77.1793 15.9719 79.2447 18.5197 79.2447V76.2447ZM96.9253 74.6315C96.9253 75.5224 96.2031 76.2447 95.3121 76.2447V79.2447C97.8599 79.2447 99.9253 77.1793 99.9253 74.6315H96.9253ZM99.9253 27.9434C99.9253 25.3956 97.8599 23.3302 95.3121 23.3302V26.3302C96.2031 26.3302 96.9253 27.0524 96.9253 27.9434H99.9253ZM16.9065 27.9434C16.9065 27.0525 17.6287 26.3302 18.5197 26.3302V23.3302C15.9719 23.3302 13.9065 25.3956 13.9065 27.9434H16.9065ZM5.11321 85.767H108.887V82.767H5.11321V85.767ZM110.5 87.3802V92.8495H113.5V87.3802H110.5ZM108.887 94.4627H5.11321V97.4627H108.887V94.4627ZM3.5 92.8495V87.3802H0.5V92.8495H3.5ZM5.11321 94.4627C4.22226 94.4627 3.5 93.7405 3.5 92.8495H0.5C0.5 95.3973 2.5654 97.4627 5.11321 97.4627V94.4627ZM110.5 92.8495C110.5 93.7405 109.778 94.4627 108.887 94.4627V97.4627C111.435 97.4627 113.5 95.3973 113.5 92.8495H110.5ZM108.887 85.767C109.778 85.767 110.5 86.4893 110.5 87.3802H113.5C113.5 84.8324 111.435 82.767 108.887 82.767V85.767ZM5.11321 82.767C2.5654 82.767 0.5 84.8324 0.5 87.3802H3.5C3.5 86.4893 4.22226 85.767 5.11321 85.767V82.767ZM88.6234 13.4151V55.2064H91.6234V13.4151H88.6234ZM90.1234 53.7064H23.7083V56.7064H90.1234V53.7064ZM25.2083 55.2064V13.4151H22.2083V55.2064H25.2083ZM23.7083 14.9151H28.2676V11.9151H23.7083V14.9151ZM84.9348 14.9151H90.1234V11.9151H84.9348V14.9151ZM34.2073 64.5551H79.9403V61.5551H34.2073V64.5551ZM33.883 71.0775H64.2647V68.0775H33.883V71.0775ZM28.345 3.39473L56.9012 14.6969L58.0052 11.9074L29.449 0.605268L28.345 3.39473ZM58.0237 14.6894L85.5053 3.38726L84.3642 0.612738L56.8827 11.9149L58.0237 14.6894ZM83.4348 2V45.9551H86.4348V2H83.4348ZM84.4864 44.5237L57.0049 53.1309L57.9015 55.9937L85.3831 47.3866L84.4864 44.5237ZM57.8861 53.1261L29.3299 44.5189L28.4641 47.3913L57.0203 55.9985L57.8861 53.1261ZM30.397 45.9551V2H27.397V45.9551H30.397ZM55.9532 13.3022L55.9535 55.0935L58.9535 55.0935L58.9532 13.3021L55.9532 13.3022Z" fill="black"/>
</svg>
