<svg width="112" height="94" viewBox="0 0 112 94" fill="none" xmlns="http://www.w3.org/2000/svg">
<path d="M7.98711 24.7313C7.98711 25.9139 7.02846 26.8725 5.8459 26.8725V29.8725C8.68531 29.8725 10.9871 27.5707 10.9871 24.7313H7.98711ZM5.8459 26.8725C4.66335 26.8725 3.7047 25.9139 3.7047 24.7313H0.704697C0.704697 27.5707 3.00649 29.8725 5.8459 29.8725V26.8725ZM3.7047 24.7313C3.7047 23.5487 4.66335 22.5901 5.8459 22.5901V19.5901C3.00649 19.5901 0.704697 21.8919 0.704697 24.7313H3.7047ZM5.8459 22.5901C7.02846 22.5901 7.98711 23.5487 7.98711 24.7313H10.9871C10.9871 21.8919 8.68531 19.5901 5.8459 19.5901V22.5901ZM33.0946 35.4363C33.0946 36.6185 32.1363 37.5768 30.9541 37.5768V40.5768C33.7931 40.5768 36.0946 38.2753 36.0946 35.4363H33.0946ZM30.9541 37.5768C29.772 37.5768 28.8137 36.6185 28.8137 35.4363H25.8137C25.8137 38.2753 28.1151 40.5768 30.9541 40.5768V37.5768ZM28.8137 35.4363C28.8137 34.2542 29.772 33.2959 30.9541 33.2959V30.2959C28.1151 30.2959 25.8137 32.5974 25.8137 35.4363H28.8137ZM30.9541 33.2959C32.1363 33.2959 33.0946 34.2542 33.0946 35.4363H36.0946C36.0946 32.5974 33.7931 30.2959 30.9541 30.2959V33.2959ZM58.2353 12.0297C58.2353 13.2119 57.277 14.1702 56.0949 14.1702V17.1702C58.9339 17.1702 61.2353 14.8687 61.2353 12.0297H58.2353ZM56.0949 14.1702C54.9127 14.1702 53.9544 13.2119 53.9544 12.0297H50.9544C50.9544 14.8687 53.2559 17.1702 56.0949 17.1702V14.1702ZM53.9544 12.0297C53.9544 10.8476 54.9127 9.88926 56.0949 9.88926V6.88926C53.2559 6.88926 50.9544 9.19072 50.9544 12.0297H53.9544ZM56.0949 9.88926C57.277 9.88926 58.2353 10.8476 58.2353 12.0297H61.2353C61.2353 9.19072 58.9339 6.88926 56.0949 6.88926V9.88926ZM83.1739 31.3998C83.1739 32.5819 82.2156 33.5403 81.0334 33.5403V36.5403C83.8724 36.5403 86.1739 34.2388 86.1739 31.3998H83.1739ZM81.0334 33.5403C79.8513 33.5403 78.893 32.5819 78.893 31.3998H75.893C75.893 34.2388 78.1944 36.5403 81.0334 36.5403V33.5403ZM78.893 31.3998C78.893 30.2177 79.8513 29.2593 81.0334 29.2593V26.2593C78.1944 26.2593 75.893 28.5608 75.893 31.3998H78.893ZM81.0334 29.2593C82.2156 29.2593 83.1739 30.2177 83.1739 31.3998H86.1739C86.1739 28.5608 83.8724 26.2593 81.0334 26.2593V29.2593ZM108.316 5.78645C108.316 6.96859 107.358 7.9269 106.176 7.9269V10.9269C109.015 10.9269 111.316 8.62544 111.316 5.78645H108.316ZM106.176 7.9269C104.994 7.9269 104.035 6.96859 104.035 5.78645H101.035C101.035 8.62544 103.337 10.9269 106.176 10.9269V7.9269ZM104.035 5.78645C104.035 4.60431 104.994 3.646 106.176 3.646V0.645996C103.337 0.645996 101.035 2.94746 101.035 5.78645H104.035ZM106.176 3.646C107.358 3.646 108.316 4.60431 108.316 5.78645H111.316C111.316 2.94746 109.015 0.645996 106.176 0.645996V3.646ZM8.06742 48.4551H11.7079V45.4551H8.06742V48.4551ZM16.2753 53.0225V85.7866H19.2753V53.0225H16.2753ZM11.7079 90.354H8.06742V93.354H11.7079V90.354ZM3.5 85.7866V53.0225H0.5V85.7866H3.5ZM8.06742 90.354C5.5449 90.354 3.5 88.3091 3.5 85.7866H0.5C0.5 89.9659 3.88805 93.354 8.06742 93.354V90.354ZM16.2753 85.7866C16.2753 88.3091 14.2304 90.354 11.7079 90.354V93.354C15.8872 93.354 19.2753 89.9659 19.2753 85.7866H16.2753ZM11.7079 48.4551C14.2304 48.4551 16.2753 50.5 16.2753 53.0225H19.2753C19.2753 48.8432 15.8872 45.4551 11.7079 45.4551V48.4551ZM8.06742 45.4551C3.88805 45.4551 0.5 48.8432 0.5 53.0225H3.5C3.5 50.5 5.5449 48.4551 8.06742 48.4551V45.4551ZM31.1236 61.8034H34.764V58.8034H31.1236V61.8034ZM39.3315 66.3708V85.7866H42.3315V66.3708H39.3315ZM34.764 90.354H31.1236V93.354H34.764V90.354ZM26.5562 85.7866V66.3708H23.5562V85.7866H26.5562ZM31.1236 90.354C28.6011 90.354 26.5562 88.3091 26.5562 85.7866H23.5562C23.5562 89.9659 26.9442 93.354 31.1236 93.354V90.354ZM39.3315 85.7866C39.3315 88.3091 37.2866 90.354 34.764 90.354V93.354C38.9434 93.354 42.3315 89.9659 42.3315 85.7866H39.3315ZM34.764 61.8034C37.2866 61.8034 39.3315 63.8483 39.3315 66.3708H42.3315C42.3315 62.1915 38.9434 58.8034 34.764 58.8034V61.8034ZM31.1236 58.8034C26.9442 58.8034 23.5562 62.1915 23.5562 66.3708H26.5562C26.5562 63.8483 28.6011 61.8034 31.1236 61.8034V58.8034ZM54.1798 35.1068H57.8202V32.1068H54.1798V35.1068ZM62.3876 39.6742V85.7866H65.3876V39.6742H62.3876ZM57.8202 90.354H54.1798V93.354H57.8202V90.354ZM49.6124 85.7866V39.6742H46.6124V85.7866H49.6124ZM54.1798 90.354C51.6573 90.354 49.6124 88.3091 49.6124 85.7866H46.6124C46.6124 89.9659 50.0004 93.354 54.1798 93.354V90.354ZM62.3876 85.7866C62.3876 88.3091 60.3427 90.354 57.8202 90.354V93.354C61.9996 93.354 65.3876 89.9659 65.3876 85.7866H62.3876ZM57.8202 35.1068C60.3427 35.1068 62.3876 37.1517 62.3876 39.6742H65.3876C65.3876 35.4948 61.9996 32.1068 57.8202 32.1068V35.1068ZM54.1798 32.1068C50.0004 32.1068 46.6124 35.4948 46.6124 39.6742H49.6124C49.6124 37.1517 51.6573 35.1068 54.1798 35.1068V32.1068ZM77.236 55.736H80.8764V52.736H77.236V55.736ZM85.4438 60.3034V85.7866H88.4438V60.3034H85.4438ZM80.8764 90.354H77.236V93.354H80.8764V90.354ZM72.6685 85.7866V60.3034H69.6685V85.7866H72.6685ZM77.236 90.354C74.7134 90.354 72.6685 88.3091 72.6685 85.7866H69.6685C69.6685 89.9659 73.0566 93.354 77.236 93.354V90.354ZM85.4438 85.7866C85.4438 88.3091 83.3989 90.354 80.8764 90.354V93.354C85.0558 93.354 88.4438 89.9659 88.4438 85.7866H85.4438ZM80.8764 55.736C83.3989 55.736 85.4438 57.7809 85.4438 60.3034H88.4438C88.4438 56.1241 85.0558 52.736 80.8764 52.736V55.736ZM77.236 52.736C73.0566 52.736 69.6685 56.1241 69.6685 60.3034H72.6685C72.6685 57.7809 74.7134 55.736 77.236 55.736V52.736ZM100.292 31.4663H103.933V28.4663H100.292V31.4663ZM108.5 36.0338V85.7866H111.5V36.0338H108.5ZM103.933 90.354H100.292V93.354H103.933V90.354ZM95.7247 85.7866V36.0338H92.7247V85.7866H95.7247ZM100.292 90.354C97.7696 90.354 95.7247 88.3091 95.7247 85.7866H92.7247C92.7247 89.9659 96.1128 93.354 100.292 93.354V90.354ZM108.5 85.7866C108.5 88.3091 106.455 90.354 103.933 90.354V93.354C108.112 93.354 111.5 89.9659 111.5 85.7866H108.5ZM103.933 31.4663C106.455 31.4663 108.5 33.5112 108.5 36.0338H111.5C111.5 31.8544 108.112 28.4663 103.933 28.4663V31.4663ZM100.292 28.4663C96.1128 28.4663 92.7247 31.8544 92.7247 36.0338H95.7247C95.7247 33.5112 97.7696 31.4663 100.292 31.4663V28.4663ZM8.62461 27.4139L26.9078 35.6593L28.1412 32.9245L9.85793 24.6792L8.62461 27.4139ZM35.0352 34.3498L54.4557 16.0778L52.3999 13.8928L32.9795 32.1649L35.0352 34.3498ZM58.5382 16.1298L77.0968 30.9894L78.9719 28.6476L60.4133 13.788L58.5382 16.1298ZM85.8966 30.0634L104.811 9.61323L102.608 7.57623L83.6942 28.0264L85.8966 30.0634Z" fill="black"/>
</svg>
