<svg width="114" height="114" viewBox="0 0 114 114" fill="none" xmlns="http://www.w3.org/2000/svg">
<path d="M2 55.5C1.17157 55.5 0.5 56.1716 0.5 57C0.5 57.8284 1.17157 58.5 2 58.5V55.5ZM23.6123 57V58.5C24.1295 58.5 24.6102 58.2336 24.8843 57.795C25.1584 57.3564 25.1873 56.8076 24.9606 56.3427L23.6123 57ZM36.8768 57L35.5405 56.3187C35.3034 56.7837 35.3251 57.3385 35.5977 57.7836C35.8704 58.2287 36.3548 58.5 36.8768 58.5V57ZM79.3797 57L80.8284 57.3889C80.9493 56.9384 80.8538 56.4572 80.5699 56.0871C80.2861 55.717 79.8462 55.5 79.3797 55.5V57ZM94.0331 57V55.5C93.5302 55.5 93.0608 55.752 92.7829 56.1711C92.5051 56.5903 92.4557 57.1207 92.6515 57.584L94.0331 57ZM112 58.5C112.828 58.5 113.5 57.8284 113.5 57C113.5 56.1716 112.828 55.5 112 55.5V58.5ZM55.5 112C55.5 112.828 56.1716 113.5 57 113.5C57.8285 113.5 58.5 112.828 58.5 112H55.5ZM57 93.3808H58.5C58.5 92.8697 58.2397 92.3937 57.8094 92.1179C57.379 91.8421 56.8378 91.8044 56.3734 92.018L57 93.3808ZM57 80.4635L56.2676 81.7725C56.7321 82.0324 57.2996 82.0267 57.7588 81.7575C58.2179 81.4882 58.5 80.9958 58.5 80.4635H57ZM57 37.545L57.7091 36.2232C57.2443 35.9738 56.6825 35.987 56.2299 36.2579C55.7772 36.5287 55.5 37.0175 55.5 37.545H57ZM57 22.8913H55.5C55.5 23.3932 55.751 23.8618 56.1687 24.1399C56.5865 24.418 57.1156 24.4688 57.5787 24.2752L57 22.8913ZM58.5 2C58.5 1.17157 57.8285 0.5 57 0.5C56.1716 0.5 55.5 1.17157 55.5 2H58.5ZM21.5557 14.1462C21.3742 13.3379 20.5719 12.8297 19.7635 13.0111C18.9552 13.1926 18.4471 13.9949 18.6285 14.8032L21.5557 14.1462ZM23.9646 31.7264L22.501 32.0549C22.6467 32.7037 23.2021 33.1792 23.8656 33.2231C24.529 33.2671 25.1423 32.8689 25.3721 32.245L23.9646 31.7264ZM30.4266 14.1868L31.85 13.7136C31.6489 13.1089 31.0878 12.6972 30.4506 12.687C29.8134 12.6768 29.2394 13.0703 29.0191 13.6683L30.4266 14.1868ZM36.3164 31.9026L34.893 32.3758C35.1029 33.0073 35.7038 33.4249 36.3688 33.4017C37.0339 33.3784 37.6041 32.9198 37.7694 32.2752L36.3164 31.9026ZM42.2135 14.9447C42.4193 14.1422 41.9356 13.3249 41.1331 13.1191C40.3306 12.9133 39.5133 13.397 39.3075 14.1995L42.2135 14.9447ZM79.5527 82.1581L79.4315 80.663C78.6642 80.7252 78.0685 81.3582 78.053 82.1279L79.5527 82.1581ZM79.1447 102.39L77.645 102.36C77.6369 102.763 77.7916 103.153 78.0742 103.441C78.3568 103.729 78.7435 103.891 79.147 103.89L79.1447 102.39ZM18.9701 94.9047C18.9857 95.733 19.6697 96.3918 20.498 96.3763C21.3263 96.3608 21.9852 95.6767 21.9696 94.8484L18.9701 94.9047ZM20.0921 74.7423L20.0227 73.2439C19.2112 73.2815 18.5771 73.9583 18.5923 74.7705L20.0921 74.7423ZM20.232 84.5639L20.4632 83.0818C19.8167 82.9809 19.1794 83.3108 18.8884 83.8969C18.5975 84.4831 18.7201 85.1902 19.1913 85.6442L20.232 84.5639ZM29.4964 95.5715C30.093 96.1463 31.0426 96.1285 31.6173 95.5319C32.1921 94.9353 32.1744 93.9857 31.5777 93.411L29.4964 95.5715ZM6.42895 3.5H107.571V0.5H6.42895V3.5ZM110.5 6.42895V107.571H113.5V6.42895H110.5ZM107.571 110.5H6.42895V113.5H107.571V110.5ZM3.5 107.571V6.42895H0.5V107.571H3.5ZM6.42895 110.5C4.81134 110.5 3.5 109.189 3.5 107.571H0.5C0.5 110.846 3.15448 113.5 6.42895 113.5V110.5ZM110.5 107.571C110.5 109.189 109.189 110.5 107.571 110.5V113.5C110.846 113.5 113.5 110.846 113.5 107.571H110.5ZM107.571 3.5C109.189 3.5 110.5 4.81133 110.5 6.42895H113.5C113.5 3.15448 110.846 0.5 107.571 0.5V3.5ZM6.42895 0.5C3.15448 0.5 0.5 3.15448 0.5 6.42895H3.5C3.5 4.81134 4.81134 3.5 6.42895 3.5V0.5ZM2 58.5H23.6123V55.5H2V58.5ZM24.9606 56.3427C22.2647 50.8123 22.5674 47.0431 23.8625 44.754C25.1688 42.4451 27.7087 41.2325 30.3638 41.2507C33.0198 41.2689 35.5411 42.5169 36.8115 44.8323C38.0697 47.1255 38.3169 50.8732 35.5405 56.3187L38.2131 57.6813C41.2566 51.7121 41.3439 46.8564 39.4416 43.3892C37.5514 39.9442 33.9114 38.2749 30.3844 38.2508C26.8566 38.2266 23.1921 39.8464 21.2514 43.2767C19.2996 46.7267 19.3128 51.6033 22.264 57.6573L24.9606 56.3427ZM36.8768 58.5H79.3797V55.5H36.8768V58.5ZM77.931 56.6111C76.4408 62.163 77.1585 66.5187 79.2435 69.5156C81.3197 72.5 84.6104 73.9204 87.786 73.8407C90.9611 73.761 94.1064 72.1741 95.8145 69.0773C97.5247 65.9766 97.6339 61.6667 95.4148 56.416L92.6515 57.584C94.6398 62.2886 94.3166 65.5813 93.1875 67.6283C92.0563 69.6793 89.9555 70.7853 87.7107 70.8416C85.4666 70.898 83.1638 69.8975 81.7061 67.8023C80.2571 65.7195 79.5004 62.3366 80.8284 57.3889L77.931 56.6111ZM94.0331 58.5H112V55.5H94.0331V58.5ZM58.5 112V93.3808H55.5V112H58.5ZM56.3734 92.018C50.7265 94.6145 46.9443 94.2412 44.6814 92.9093C42.4034 91.5686 41.2578 89.0236 41.3369 86.3935C41.4161 83.7598 42.7152 81.2985 45.0203 80.1164C47.2997 78.9475 50.9888 78.8188 56.2676 81.7725L57.7325 79.1545C51.9387 75.9126 47.1389 75.6585 43.6513 77.4469C40.1894 79.2223 38.4436 82.8012 38.3382 86.3033C38.2328 89.8091 39.7631 93.4957 43.1597 95.4948C46.5715 97.5028 51.4629 97.5778 57.6267 94.7437L56.3734 92.018ZM58.5 80.4635V37.545H55.5V80.4635H58.5ZM56.2909 38.8668C62.1623 42.0166 67.0816 42.0917 70.6739 40.1426C74.2228 38.2171 76.1127 34.5042 76.3168 30.8395C76.5212 27.1695 75.0433 23.3057 71.5611 21.1446C68.073 18.9798 62.9747 18.7674 56.4214 21.5074L57.5787 24.2752C63.6262 21.7466 67.6177 22.2281 69.9791 23.6936C72.3465 25.1628 73.4778 27.8658 73.3214 30.6727C73.1648 33.4852 71.7242 36.1596 69.2432 37.5058C66.8057 38.8283 62.9958 39.0593 57.7091 36.2232L56.2909 38.8668ZM58.5 22.8913V2H55.5V22.8913H58.5ZM18.6285 14.8032L22.501 32.0549L25.4282 31.3979L21.5557 14.1462L18.6285 14.8032ZM25.3721 32.245L31.8341 14.7054L29.0191 13.6683L22.5571 31.2079L25.3721 32.245ZM29.0032 14.66L34.893 32.3758L37.7398 31.4294L31.85 13.7136L29.0032 14.66ZM37.7694 32.2752L42.2135 14.9447L39.3075 14.1995L34.8634 31.53L37.7694 32.2752ZM78.053 82.1279L77.645 102.36L80.6444 102.42L81.0524 82.1884L78.053 82.1279ZM79.147 103.89C84.221 103.882 88.0699 102.448 90.6429 100.144C93.22 97.8371 94.4091 94.7475 94.2832 91.6955C94.0282 85.5107 88.4881 79.9291 79.4315 80.663L79.6739 83.6532C87.2622 83.0382 91.1101 87.558 91.2858 91.8191C91.3753 93.99 90.5404 96.2094 88.6418 97.9092C86.7391 99.6127 83.6604 100.883 79.1424 100.89L79.147 103.89ZM21.9696 94.8484L21.5918 74.7142L18.5923 74.7705L18.9701 94.9047L21.9696 94.8484ZM20.1614 76.2407C23.6132 76.081 25.8173 76.7071 27.0654 77.5101C28.2702 78.2852 28.5657 79.1851 28.4806 79.9056C28.3032 81.4075 25.9262 83.9341 20.4632 83.0818L20.0008 86.046C26.1688 87.0083 30.9839 84.2881 31.4599 80.2575C31.7015 78.2118 30.6889 76.2741 28.6885 74.9871C26.7314 73.728 23.8331 73.0676 20.0227 73.2439L20.1614 76.2407ZM19.1913 85.6442L29.4964 95.5715L31.5777 93.411L21.2727 83.4836L19.1913 85.6442ZM100.127 26.9043C100.127 31.4689 96.4268 35.1692 91.8622 35.1692V38.1692C98.0836 38.1692 103.127 33.1257 103.127 26.9043H100.127ZM91.8622 35.1692C87.2976 35.1692 83.5973 31.4689 83.5973 26.9043H80.5973C80.5973 33.1257 85.6408 38.1692 91.8622 38.1692V35.1692ZM83.5973 26.9043C83.5973 22.3398 87.2977 18.6394 91.8622 18.6394V15.6394C85.6408 15.6394 80.5973 20.6829 80.5973 26.9043H83.5973ZM91.8622 18.6394C96.4268 18.6394 100.127 22.3398 100.127 26.9043H103.127C103.127 20.6829 98.0836 15.6394 91.8622 15.6394V18.6394Z" fill="black"/>
</svg>
