<svg width="105" height="124" viewBox="0 0 105 124" fill="none" xmlns="http://www.w3.org/2000/svg">
<path d="M2.05839 63.8093L3.50601 64.2022H3.50601L2.05839 63.8093ZM87.0903 40.8868L87.8469 39.5916L87.0903 40.8868ZM20.8937 2.22237L21.6502 0.927122L21.6502 0.927122L20.8937 2.22237ZM4.04015 65.8019L4.42512 67.2517H4.42512L4.04015 65.8019ZM42.7767 57.0677C43.5774 56.8551 44.0541 56.0337 43.8415 55.233C43.6289 54.4323 42.8075 53.9556 42.0068 54.1682L42.7767 57.0677ZM59.3278 51.1207L58.0166 50.3921C58.0126 50.3993 58.0086 50.4066 58.0047 50.4139L59.3278 51.1207ZM86.6885 43.8553L86.3036 42.4055L86.6885 43.8553ZM30.3929 57.7893C29.7084 57.3226 28.7752 57.499 28.3085 58.1835C27.8417 58.8679 28.0182 59.8011 28.7026 60.2678L30.3929 57.7893ZM47.7854 71.4657L46.9402 72.705L47.7854 71.4657ZM59.3256 50.5998L58.1511 51.5329C58.1578 51.5413 58.1647 51.5498 58.1716 51.5581L59.3256 50.5998ZM56.474 79.2823C56.2285 78.4911 55.3881 78.0487 54.5969 78.2941C53.8056 78.5396 53.3632 79.38 53.6087 80.1712L56.474 79.2823ZM99.1486 123.454C99.9519 123.657 100.767 123.17 100.97 122.367C101.172 121.563 100.685 120.748 99.8822 120.546L99.1486 123.454ZM11.4748 88.7709C10.8636 89.3302 10.8216 90.279 11.3808 90.8901C11.9401 91.5013 12.8889 91.5433 13.5001 90.984L11.4748 88.7709ZM18.6777 75.1135C18.7521 74.2885 18.1437 73.5592 17.3186 73.4848C16.4935 73.4103 15.7643 74.0188 15.6898 74.8439L18.6777 75.1135ZM23.4734 84.0777C23.1183 84.8261 23.4371 85.7208 24.1856 86.0759C24.934 86.4311 25.8286 86.1122 26.1838 85.3638L23.4734 84.0777ZM27.2151 73.5181C27.0637 72.7036 26.2807 72.1661 25.4663 72.3174C24.6518 72.4688 24.1142 73.2518 24.2656 74.0663L27.2151 73.5181ZM75.5982 58.5354C75.2223 57.7972 74.3191 57.5035 73.5809 57.8795C72.8427 58.2554 72.549 59.1586 72.9249 59.8968L75.5982 58.5354ZM81.3222 69.3771C82.0893 69.6898 82.9647 69.3215 83.2774 68.5544C83.5902 67.7872 83.2218 66.9118 82.4547 66.5991L81.3222 69.3771ZM83.9271 54.3104C83.4655 53.6225 82.5336 53.4391 81.8457 53.9007C81.1579 54.3623 80.9744 55.2942 81.4361 55.9821L83.9271 54.3104ZM94.4214 65.8622C95.2251 66.0633 96.0396 65.5749 96.2407 64.7713C96.4419 63.9677 95.9535 63.1531 95.1498 62.952L94.4214 65.8622ZM17.0625 2.8052L0.610771 63.4163L3.50601 64.2022L19.9577 3.59106L17.0625 2.8052ZM87.8469 39.5916L21.6502 0.927122L20.1371 3.51761L86.3338 42.1821L87.8469 39.5916ZM4.42512 67.2517L42.7767 57.0677L42.0068 54.1682L3.65518 64.3522L4.42512 67.2517ZM59.7127 52.5705L87.0735 45.305L86.3036 42.4055L58.9428 49.671L59.7127 52.5705ZM86.3338 42.1821C86.358 42.1962 86.3694 42.2075 86.3741 42.2128C86.3792 42.2184 86.3826 42.2237 86.3853 42.2297C86.3914 42.243 86.3979 42.2691 86.3932 42.3039C86.3885 42.3387 86.3753 42.3621 86.3659 42.3733C86.3616 42.3784 86.357 42.3826 86.3506 42.3866C86.3446 42.3905 86.3306 42.3983 86.3036 42.4055L87.0735 45.305C89.7578 44.5922 90.245 40.9923 87.8469 39.5916L86.3338 42.1821ZM0.610771 63.4163C-0.0191643 65.7371 2.10089 67.8689 4.42512 67.2517L3.65518 64.3522C3.62116 64.3612 3.6032 64.3578 3.59219 64.3546C3.57676 64.3501 3.5565 64.3396 3.53727 64.3203C3.51805 64.3009 3.50764 64.2806 3.50325 64.2652C3.50013 64.2541 3.49679 64.2362 3.50601 64.2022L0.610771 63.4163ZM19.9577 3.59106C19.9788 3.51349 20.0677 3.47708 20.1371 3.51761L21.6502 0.927122C19.8755 -0.109419 17.6008 0.821788 17.0625 2.8052L19.9577 3.59106ZM17.1438 3.81709L47.6214 71.0949L50.354 69.857L19.8764 2.57916L17.1438 3.81709ZM48.6305 70.2264L30.3929 57.7893L28.7026 60.2678L46.9402 72.705L48.6305 70.2264ZM47.6091 71.0672C47.3375 70.4339 48.0612 69.8382 48.6305 70.2264L46.9402 72.705C48.85 74.0073 51.2774 72.0092 50.3663 69.8847L47.6091 71.0672ZM50.3107 71.1828L60.6508 51.8275L58.0047 50.4139L47.6647 69.7692L50.3107 71.1828ZM60.5001 49.6668L22.0681 1.28933L19.7192 3.15541L58.1511 51.5329L60.5001 49.6668ZM60.6389 51.8494C60.6488 51.8315 60.6589 51.8143 60.6722 51.7918C60.6805 51.7779 60.7083 51.7317 60.7302 51.6933C60.7559 51.6481 60.9248 51.3696 60.961 50.9894C61.0057 50.5206 60.8385 50.1651 60.7239 49.9747C60.6323 49.8227 60.5192 49.6892 60.4796 49.6415L58.1716 51.5581C58.2389 51.6391 58.1998 51.5986 58.1541 51.5227C58.0852 51.4084 57.9357 51.1121 57.9745 50.7049C57.9911 50.5311 58.0371 50.3988 58.0681 50.3236C58.0836 50.2858 58.0977 50.2571 58.1063 50.2403C58.1149 50.2235 58.121 50.2127 58.1219 50.211C58.1228 50.2094 58.1218 50.2113 58.1163 50.2205C58.1079 50.2347 58.1072 50.2359 58.094 50.258C58.0744 50.2909 58.0473 50.3368 58.0166 50.3921L60.6389 51.8494ZM53.6087 80.1712C56.1796 88.4585 60.3895 94.2815 65.7305 98.3961C71.0482 102.493 77.3995 104.829 84.1583 106.3L84.7961 103.368C78.2802 101.95 72.3998 99.7471 67.5614 96.0196C62.7462 92.31 58.8755 87.0237 56.474 79.2823L53.6087 80.1712ZM84.5493 106.332C94.7137 105.843 100.548 103.076 103.08 99.283C105.693 95.3679 104.44 90.9389 101.763 88.2084C99.0876 85.4788 94.6739 84.1194 90.6617 86.575C86.7566 88.965 83.7824 94.6617 82.9819 104.715L85.9725 104.953C86.7487 95.2038 89.5737 90.7582 92.2278 89.1338C94.7748 87.5749 97.6804 88.3288 99.6212 90.3086C101.561 92.2874 102.223 95.1636 100.585 97.6176C98.8655 100.194 94.2842 102.86 84.4051 103.336L84.5493 106.332ZM82.9774 104.857C83.0797 111.596 85.0511 115.861 88.2381 118.655C91.332 121.367 95.3861 122.506 99.1486 123.454L99.8822 120.546C96.0643 119.583 92.697 118.574 90.2157 116.399C87.8276 114.305 86.0701 110.943 85.977 104.811L82.9774 104.857ZM13.5001 90.984C15.7166 88.9557 16.8701 86.3025 17.5413 83.5524C18.2068 80.8255 18.4312 77.8446 18.6777 75.1135L15.6898 74.8439C15.435 77.6683 15.2265 80.384 14.6268 82.8412C14.0328 85.2753 13.0889 87.2938 11.4748 88.7709L13.5001 90.984ZM26.1838 85.3638C26.9527 83.7435 27.5651 82.3597 27.7762 80.535C27.9832 78.7457 27.7948 76.6375 27.2151 73.5181L24.2656 74.0663C24.8315 77.1114 24.95 78.86 24.7961 80.1902C24.6463 81.4849 24.2301 82.4832 23.4734 84.0777L26.1838 85.3638ZM72.9249 59.8968C74.4607 62.9126 75.6168 67.0512 81.3222 69.3771L82.4547 66.5991C78.0206 64.7915 77.3507 61.9768 75.5982 58.5354L72.9249 59.8968ZM81.4361 55.9821C84.2315 60.1475 87.707 64.1816 94.4214 65.8622L95.1498 62.952C89.4832 61.5336 86.5458 58.2125 83.9271 54.3104L81.4361 55.9821Z" fill="black"/>
</svg>
