<svg width="49" height="30" viewBox="0 0 49 30" fill="none" xmlns="http://www.w3.org/2000/svg">
<path fill-rule="evenodd" clip-rule="evenodd" d="M41.741 0.198736C39.3596 0.858077 38.1027 2.77016 38.6981 4.81412C39.095 6.1328 40.2526 6.92401 42.7664 7.55038C44.4863 7.97896 45.1478 8.24269 45.4124 8.6383C45.9085 9.29764 45.6108 10.1877 44.817 10.6163C44.4863 10.7482 44.1555 10.8141 43.2956 10.8141C42.3033 10.8141 42.2041 10.7812 41.741 10.4845C41.4103 10.2207 41.2118 9.98995 41.0795 9.56137L40.8149 8.96797H38.1689L38.2681 9.56137C38.3673 10.4185 38.8304 11.3416 39.3927 11.8691C41.278 13.5834 45.5778 13.6163 47.3638 11.8691C48.6868 10.6163 48.7861 8.44049 47.5954 7.12181C46.9338 6.36357 46.0739 5.96797 44.0894 5.44049C42.2372 4.94599 41.708 4.71522 41.5095 4.18775C41.0464 3.09984 42.171 2.11082 43.7586 2.27566C44.6517 2.37456 45.0816 2.6383 45.4124 3.3306L45.7431 3.89104H48.2238V3.42951C48.2238 2.77016 47.6615 1.68225 47.0331 1.12181C46.0876 0.348668 44.8785 -0.0294273 43.6594 0.0668681C42.7333 0.0668681 42.1049 0.132802 41.741 0.231703V0.198736ZM0 6.52841V12.957H2.77833V8.44049H4.72977L5.95355 10.6823L7.14426 12.957H8.63265C9.13094 12.9801 9.63024 12.9469 10.121 12.8581L8.79803 10.4185L7.47502 8.04489L8.13652 7.61632C9.22801 6.89104 9.72414 5.8361 9.69106 4.28665C9.69106 2.30863 8.83111 1.12181 7.04504 0.462473C6.41661 0.231703 6.08586 0.198736 3.17523 0.165769L0 0.132802V6.52841ZM5.98663 2.70423C6.58198 3.0339 6.87966 3.59434 6.87966 4.35258C6.87966 5.14379 6.61506 5.67126 5.98663 5.96797C5.55665 6.19874 5.32512 6.2317 4.13441 6.2317H2.77833V2.30863L4.13441 2.37456C5.32512 2.40753 5.58973 2.47346 5.98663 2.70423ZM41.1457 16.979C40.3303 17.1608 39.5659 17.5214 38.9079 18.0347C38.25 18.5479 37.715 19.2008 37.342 19.946C36.6805 21.1987 36.5151 22.1548 36.5813 23.902C36.6805 25.946 37.1436 27.0998 38.3343 28.3196C39.5581 29.5724 40.8811 30.0339 42.9648 29.935C44.8832 29.8691 46.2062 29.2427 47.1654 27.957C47.893 26.968 48.1246 26.1768 48.1576 24.4625L48.2569 23.0119H42.7664V24.9899H45.5778L45.5116 25.4515C45.4235 25.9911 45.1825 26.4944 44.817 26.902C44.0563 27.5614 42.3364 27.7921 41.3111 27.3306C40.3849 26.935 39.6904 26.0119 39.4258 24.7592C39.2273 23.8691 39.3596 22.0888 39.6573 21.2976C40.3188 19.6493 42.0387 18.8581 43.6925 19.4185C44.2548 19.6163 45.0486 20.3746 45.1809 20.8361L45.247 21.1328H48.0915L48.0253 20.8031C47.7938 19.8141 47.43 19.1877 46.6362 18.3965C45.9022 17.7385 45.0202 17.2662 44.0646 17.0195C43.109 16.7727 42.1078 16.7588 41.1457 16.979ZM0.0330753 23.4075V29.8031H4.20056L8.33498 29.8361V27.6273H2.77833V17.0449H0V23.4075H0.0330753ZM14.0901 17.3416L9.79029 29.8031H12.7009L13.164 28.3526L13.627 26.935H18.2576L18.7537 28.3856L19.2498 29.8361H20.6721C21.4659 29.8361 22.0943 29.8361 22.0943 29.7702L19.9444 23.3746L17.7284 17.0449H14.2224L14.0901 17.3416ZM23.6819 23.4075L23.715 29.8031H25.0711L26.4272 29.8691L26.4602 25.7812L26.4933 21.7262L29.3378 25.7812L32.1492 29.8691L33.3068 29.8361L34.4975 29.8031V23.4075L34.5637 17.0449H31.7523V21.0669L31.7192 25.1218L28.9409 21.0669L26.1626 17.0449H23.6488L23.6819 23.4075ZM16.7692 22.3196L17.4968 24.7262H14.3547L15.1485 22.3196L15.9754 19.913L16.7692 22.3196Z" fill="black"/>
</svg>
