<svg width="65" height="24" viewBox="0 0 65 24" fill="none" xmlns="http://www.w3.org/2000/svg">
<path d="M36.7433 0.197683C34.8894 0.630518 33.9688 1.6124 33.9597 3.16646C33.9492 4.97609 34.9577 5.80705 38.1914 6.65443C39.7632 7.06602 40.2974 7.77943 39.5539 8.47239C38.7101 9.25844 37.0588 8.74867 36.8509 7.63712C36.7478 7.08243 36.7529 7.08404 35.0211 7.18088L33.4862 7.26643L33.5601 7.75226C33.6738 8.50118 34.2886 9.65738 34.8126 10.1082C36.3654 11.4436 40.6416 11.3067 42.1055 9.87366L42.5337 9.45454L42.6159 9.94172C42.917 11.7341 44.728 13.4181 46.8116 13.8434L47.4806 13.9803L47.0853 14.5009C45.7809 16.2182 45.744 19.7304 47.0115 21.5546C48.9513 24.3455 54.4099 24.2646 56.2059 21.4184L56.5402 20.8888V23.415H65V20.6988H59.9477V12.7857H56.5402L56.5335 13.9962C56.5276 14.9851 56.5011 15.1645 56.3868 14.976C55.7394 13.9085 54.4786 13.0216 53.2427 12.7652L52.5766 12.6267L53.2526 12.1161C55.3557 10.5274 56.6654 7.62878 56.329 5.30831C55.4445 -0.789848 46.7056 -0.88427 43.377 5.16762C43.1624 5.55715 42.9796 5.88856 42.9705 5.9039C42.9614 5.91923 42.6619 5.64673 42.3044 5.29943C41.563 4.57768 40.9676 4.31352 38.9435 3.80966C37.0602 3.34051 36.6748 3.01151 37.3077 2.41297C37.9099 1.84402 39.221 2.21256 39.5162 3.03411C39.6894 3.51537 39.6578 3.5108 41.6599 3.37764L42.8177 3.30043L42.7438 2.83666C42.4021 0.688086 39.7118 -0.495283 36.7425 0.19849L36.7433 0.197683ZM0.730364 5.58082V10.8951H4.13784V6.64313H4.48415C5.03065 6.64313 5.36118 7.04719 6.41484 9.0053L7.40026 10.8354L9.29482 10.8679C10.3367 10.8859 11.1886 10.8687 11.1886 10.83C11.1886 10.2314 9.06519 6.77764 8.47586 6.4177L8.15283 6.22025L8.80478 5.87753C11.2218 4.60566 10.7641 0.961937 8.11537 0.390831C7.78109 0.319006 6.08833 0.265204 4.13195 0.265204H0.730364V5.57947V5.58082ZM52.3205 1.19167C57.6383 2.58675 57.1515 10.0862 51.5647 12.8241C45.8727 15.6138 40.8 11.0342 43.5055 5.54881C45.084 2.34841 49.1215 0.352632 52.3197 1.19248L52.3205 1.19167ZM6.48576 2.6618C7.68261 3.27003 6.88855 4.39287 5.19337 4.48972L4.13811 4.55025V2.50981L5.16634 2.51143C5.75486 2.51223 6.31876 2.57653 6.48576 2.66127V2.6618ZM50.4396 3.60145C49.5039 3.85109 48.5525 4.8015 48.5517 5.48693C48.5501 6.60682 49.4408 7.0106 50.8421 6.52585C51.6993 6.2294 51.9177 6.2294 52.0764 6.52665C52.3451 7.03212 51.4643 7.54727 50.9505 7.18492C50.6922 7.00334 49.74 7.57606 49.7303 7.91877C49.7153 8.43473 51.0144 8.63003 51.8101 8.23136C54.3371 6.96567 53.6195 4.24869 50.9986 5.1574C49.9509 5.52056 49.7258 5.53643 49.7258 5.24429C49.7258 4.7859 50.4385 4.45448 50.7495 4.7668C50.8766 4.89458 51.8401 4.25245 51.8401 4.03967C51.8401 3.72197 50.9866 3.45403 50.4385 3.60091L50.4396 3.60145ZM46.6467 6.14977C46.086 6.55759 46.0595 6.4516 47.0877 7.91877C47.7207 8.8213 47.964 9.26705 47.9399 9.47822C47.8979 9.83923 47.4951 9.93526 47.2119 9.65146C47.0321 9.47069 46.9852 9.48494 46.5594 9.85187C45.4838 10.7781 47.1188 11.573 48.3336 10.7151C49.6682 9.77251 49.6704 9.18769 48.3435 7.24006C47.3144 5.72904 47.2671 5.69891 46.6462 6.15058L46.6467 6.14977ZM3.51613 12.67C1.59374 12.9748 0.468354 14.1046 0.453366 15.7448C0.438379 17.4183 1.51773 18.3716 4.19136 19.0442C5.83007 19.4566 6.36961 19.7713 6.36961 20.3136C6.36961 21.8411 3.64941 21.6883 3.36171 20.145C3.26081 19.6064 3.27366 19.6094 1.53861 19.7038L0 19.7877L0.07681 20.2719C0.427674 22.4918 1.71177 23.4156 4.57274 23.5057C6.84144 23.5767 7.62132 23.3558 8.61182 22.3602L9.29 21.6786L9.53916 22.0167C10.9806 23.9762 15.8499 24.108 17.4487 22.23C17.9163 21.6815 18.4408 20.648 18.4944 20.1721C18.5321 19.8369 18.5214 19.831 17.0965 19.3966L15.6612 18.9586L15.4685 19.5413C14.812 21.5274 12.3335 21.55 11.7891 19.5755C11.6039 18.9043 11.6264 17.3013 11.8312 16.6104C12.3249 14.9407 14.4106 14.598 15.2568 16.0482C15.6098 16.6535 15.5151 16.6422 17.1169 16.2782C18.6418 15.9317 18.5762 15.9931 18.2286 15.2401C16.8495 12.2576 12.2136 11.5579 9.75541 13.9599L9.06974 14.6303L8.78525 14.1423C8.07629 12.9256 5.83997 12.3007 3.51774 12.67H3.51613ZM35.9792 12.673C34.6777 12.9 33.392 13.7232 32.6657 14.7936C32.4714 15.0803 32.4663 15.0569 32.4601 13.9362L32.454 12.7846H29.0465V16.4458H25.639V12.7846H22.2315V23.4139H25.639V19.162H29.0465V23.4139H32.454V21.0109L32.822 21.5685C34.3531 23.8912 39.0883 24.299 41.2432 22.2933C43.737 19.9728 43.2478 14.694 40.4039 13.2355C39.3064 12.6724 37.3802 12.4274 35.9787 12.6719L35.9792 12.673ZM5.42675 14.8506C5.62319 14.9528 5.85362 15.2296 5.9786 15.5142L6.19324 16.003L8.48898 15.8919L8.41377 16.4942C8.31448 17.291 8.27006 17.3212 7.61142 17.0285C7.30123 16.8908 6.43331 16.6236 5.68153 16.4337C3.90286 15.9858 3.68153 15.8898 3.59053 15.5258C3.42193 14.8525 4.59843 14.4196 5.42782 14.8509L5.42675 14.8506ZM37.9942 15.2681C39.7343 15.7539 40.0868 19.7683 38.473 20.7231C37.2678 21.4357 35.7429 20.829 35.3853 19.4937C34.6748 16.8404 35.9912 14.7091 37.9942 15.2681ZM52.2 15.2651C54.2217 15.8295 54.1805 20.3962 52.1489 20.9463C50.5156 21.388 49.4287 20.2472 49.437 18.0999C49.4461 15.8688 50.4976 14.7898 52.2003 15.2657L52.2 15.2651Z" fill="black"/>
</svg>
