<svg xmlns="http://www.w3.org/2000/svg" viewBox="0 0 114 96" width="114" height="96">
  <path d="M65.3125 14.4617c0 .5523.4477 1 .9999 1 .5523.0001 1.0001-.4476 1.0001-.9999l-2-.0001Zm2-3.8204c.0001-.5523-.4476-1-.9999-1.0001-.5523-.0001-1 .4475-1.0001.9998l2 .0003Zm10.3701-.0001c0-.5523-.4478-1-1-1-.5523 0-1 .4477-1 1h2Zm-2 3.8205c0 .5523.4477 1 1 1 .5522 0 1-.4477 1-1h-2Zm21.8188 4.0734-.6303.7763.6303-.7763Zm4.3506 3.5324.63-.7763-.63.7763Zm.219 2.1244.772.6358.003-.0041-.775-.6317Zm-2.4886 1.4486c-.3511.4263-.2901 1.0565.1362 1.4076.4264.3511 1.0564.2902 1.4074-.1362l-1.5436-1.2714Zm-6.2741-5.9024c-.3444.4318-.2737 1.061.1581 1.4054.4317.3444 1.0609.2736 1.4053-.1581l-1.5634-1.2473Zm2.0649-.9848-.7753-.6317-.0064.0081.7817.6236Zm-49.8011 33.46c-.5522 0-1 .4477-1 1s.4478 1 1 1v-2Zm3.8206 2c.5523 0 1-.4477 1-1s-.4477-1-1-1v2Zm45.3011-2c-.5522 0-1 .4477-1 1s.4478 1 1 1v-2Zm3.8206 2c.5523 0 1-.4477 1-1s-.4477-1-1-1v2ZM73.3162 27.0151c0-.5523-.4477-1-1-1s-1 .4477-1 1h2Zm-2 3.8205c0 .5523.4477 1 1 1s1-.4477 1-1h-2ZM55.012 33.9491c-.3905-.3905-1.0237-.3905-1.4142 0-.3905.3905-.3905 1.0237 0 1.4142l1.4142-1.4142Zm1.3148 4.1432c.3905.3905 1.0237.3905 1.4142 0 .3905-.3905.3905-1.0237 0-1.4142l-1.4142 1.4142Zm34.7467-2.729c.3905-.3905.3905-1.0237 0-1.4142-.3905-.3905-1.0237-.3905-1.4142 0l1.4142 1.4142Zm-5.2736 2.4452c-.3905.3905-.3905 1.0237 0 1.4142.3905.3905 1.0237.3905 1.4142 0l-1.4142-1.4142Zm3.0903 30.5646c-.3905-.3905-1.0237-.3905-1.4142 0-.3906.3905-.3906 1.0237 0 1.4142l1.4142-1.4142Zm1.3147 4.1432c.3906.3905 1.0237.3905 1.4143 0 .3905-.3905.3905-1.0237 0-1.4142l-1.4143 1.4142Zm-33.0096-2.729c.3905-.3905.3905-1.0237 0-1.4142-.3905-.3905-1.0237-.3905-1.4142 0l1.4142 1.4142Zm-4.1432 1.3148c-.3905.3905-.3905 1.0237 0 1.4142.3905.3905 1.0237.3905 1.4142 0l-1.4142-1.4142Zm20.2641 5.0347c0-.5523-.4477-1-1-1s-1 .4477-1 1h2Zm-2 3.8205c0 .5523.4477 1 1 1s1-.4477 1-1h-2ZM30.8356 37.2936c.5523 0 1-.4477 1-1s-.4477-1-1-1v2Zm-18.0113-2c-.5522 0-1 .4477-1 1s.4478 1 1 1v-2ZM30.8356 71.133c.5523 0 1-.4477 1-1s-.4477-1-1-1v2Zm-18.0113-2c-.5522 0-1 .4477-1 1s.4478 1 1 1v-2Zm15.2823-14.9197c.5523 0 1-.4477 1-1s-.4477-1-1-1v2ZM3 52.2133c-.5523 0-1 .4477-1 1s.4477 1 1 1v-2Zm70.7923-2.5184c-.3906.3906-.3906 1.0237 0 1.4142.3905.3906 1.0237.3906 1.4142 0l-1.4142-1.4142Zm9.5188-6.6904c.3906-.3905.3906-1.0237 0-1.4142-.3905-.3906-1.0237-.3906-1.4142 0l1.4142 1.4142Zm-8.7202 9.9359c0 1.1056-.8962 2.0019-2.0018 2.0019v2c2.2101 0 4.0018-1.7917 4.0018-4.0019h-2Zm-2.0018 2.0019c-1.1056 0-2.0019-.8963-2.0019-2.0019h-2c0 2.2102 1.7917 4.0019 4.0019 4.0019v-2Zm-2.0019-2.0019c0-1.1056.8963-2.0019 2.0019-2.0019v-2c-2.2102 0-4.0019 1.7917-4.0019 4.0019h2Zm2.0019-2.0019c1.1056 0 2.0018.8963 2.0018 2.0019h2c0-2.2102-1.7917-4.0019-4.0018-4.0019v2Zm28.9549 2.1244c0 16.264-13.2076 29.4516-29.5037 29.4516v2c17.3974 0 31.5037-14.0798 31.5037-31.4516h-2ZM72.0403 82.5145c-16.2961 0-29.5038-13.1876-29.5038-29.4516h-2c0 17.3718 14.1063 31.4516 31.5038 31.4516v-2ZM42.5365 53.0629c0-16.2641 13.2077-29.4516 29.5038-29.4516v-2c-17.3975 0-31.5038 14.0797-31.5038 31.4516h2Zm29.5038-29.4516c16.2961 0 29.5037 13.1875 29.5037 29.4516h2c0-17.3719-14.1063-31.4516-31.5037-31.4516v2Zm37.9427 30.0704C109.983 74.8427 92.7991 92 71.5976 92v2c22.3029 0 40.3854-18.0495 40.3854-40.3183h-2ZM71.5976 92c-21.2015 0-38.3858-17.1573-38.3858-38.3183h-2C31.2118 75.9505 49.2948 94 71.5976 94v-2ZM33.2118 53.6817c0-21.1611 17.1843-38.3184 38.3858-38.3184v-2c-22.3028 0-40.3858 18.0495-40.3858 40.3184h2Zm38.3858-38.3184c21.2015 0 38.3854 17.1573 38.3854 38.3184h2c0-22.2689-18.0825-40.3184-40.3854-40.3184v2Zm-4.2851-.9015c.0001-1.5241-.0002-2.1795 0-3.8205l-2-.0003c-.0002 1.6407.0001 2.2978 0 3.8207l2 .0001Zm8.3701-3.8206v3.8205h2v-3.8205h-2Zm21.1885 8.6702 4.3499 3.5324 1.261-1.5526-4.3502-3.5324-1.2607 1.5526Zm4.3499 3.5324c.22.1782.252.4986.075.7164l1.55 1.2634c.877-1.076.713-2.6579-.364-3.5324l-1.261 1.5526Zm.078.7124-1.7166 2.0843 1.5436 1.2714 1.717-2.0842-1.544-1.2715Zm-6.4273-2.5708 1.2832-1.6084-1.5634-1.2473-1.2832 1.6084 1.5634 1.2473Zm1.2767-1.6004a.5146.5146 0 0 1 .7227-.0736l1.2607-1.5526c-1.076-.8737-2.6578-.7122-3.5338.3629l1.5504 1.2633ZM45.5721 54.2133h3.8206v-2h-3.8206v2Zm25.7441-27.1982v3.8205h2v-3.8205h-2Zm-17.7184 8.3482 2.729 2.729 1.4142-1.4142-2.729-2.729-1.4142 1.4142Zm36.0615-1.4142-3.8594 3.8594 1.4142 1.4142 3.8594-3.8594-1.4142-1.4142ZM87.476 69.7873l2.7289 2.729 1.4143-1.4142-2.729-2.729-1.4142 1.4142Zm-31.6949-1.4142-2.729 2.729 1.4142 1.4142 2.729-2.729-1.4142-1.4142Zm15.5351 7.7637v3.8205h2v-3.8205h-2ZM30.8356 35.2936H12.8243v2h18.0113v-2Zm0 33.8394H12.8243v2h18.0113v-2Zm-2.729-16.9197H3v2h25.1066v-2Zm47.0999-1.1042 8.1046-8.1046-1.4142-1.4142-8.1046 8.1046 1.4142 1.4142ZM64.675 11.6412h13.6449v-2H64.675v2ZM78.3199 2H64.675v2h13.6449V2ZM64.675 2c-2.6623 0-4.8206 2.1582-4.8206 4.8206h2C61.8544 5.2628 63.1173 4 64.675 4V2Zm18.4655 4.8206C83.1405 4.1583 80.9823 2 78.3199 2v2c1.5578 0 2.8206 1.2628 2.8206 2.8206h2Zm-4.8206 4.8206c2.6624 0 4.8206-2.1583 4.8206-4.8206h-2c0 1.5577-1.2628 2.8205-2.8206 2.8205v2.0001Zm-13.6449-2c-1.5577 0-2.8206-1.2629-2.8206-2.8206h-2c0 2.6623 2.1583 4.8206 4.8206 4.8206v-2Zm30.0188 44.5721h3.8206v-2h-3.8206v2Z"/>
</svg>
