<svg width="152" height="128" viewBox="0 0 152 128" fill="none" xmlns="http://www.w3.org/2000/svg">
<path d="M87.9475 17.4815C87.9475 18.0338 88.3952 18.4815 88.9475 18.4816C89.4998 18.4816 89.9475 18.0339 89.9475 17.4816L87.9475 17.4815ZM89.9475 12.1825C89.9476 11.6302 89.4999 11.1824 88.9477 11.1823C88.3954 11.1823 87.9476 11.6299 87.9475 12.1822L89.9475 12.1825ZM104.353 12.1823C104.353 11.63 103.905 11.1823 103.353 11.1823C102.8 11.1823 102.353 11.63 102.353 12.1823H104.353ZM102.353 17.4816C102.353 18.0338 102.8 18.4816 103.353 18.4816C103.905 18.4816 104.353 18.0338 104.353 17.4816H102.353ZM132.272 23.1314L131.642 23.9082L132.272 23.1314ZM138.315 28.0309L138.945 27.2541L138.315 28.0309ZM138.62 30.9776L139.391 31.6139L139.394 31.6099L138.62 30.9776ZM135.464 33.2322C135.112 33.6583 135.173 34.2886 135.599 34.64C136.025 34.9914 136.655 34.9309 137.007 34.5048L135.464 33.2322ZM126.752 25.0409C126.407 25.4723 126.478 26.1016 126.909 26.4463C127.341 26.7911 127.97 26.7208 128.315 26.2893L126.752 25.0409ZM129.316 23.4341L128.541 22.8018L128.535 22.8099L129.316 23.4341ZM60.1371 70.2309C59.5848 70.2309 59.1371 70.6787 59.1371 71.2309C59.1371 71.7832 59.5848 72.2309 60.1371 72.2309V70.2309ZM65.4442 72.2309C65.9965 72.2309 66.4442 71.7832 66.4442 71.2309C66.4442 70.6787 65.9965 70.2309 65.4442 70.2309V72.2309ZM128.372 70.2309C127.82 70.2309 127.372 70.6787 127.372 71.2309C127.372 71.7832 127.82 72.2309 128.372 72.2309V70.2309ZM133.679 72.2309C134.232 72.2309 134.679 71.7832 134.679 71.2309C134.679 70.6787 134.232 70.2309 133.679 70.2309V72.2309ZM98.2873 34.8933C98.2873 34.341 97.8396 33.8933 97.2873 33.8933C96.735 33.8933 96.2873 34.341 96.2873 34.8933H98.2873ZM96.2873 40.1926C96.2873 40.7449 96.735 41.1926 97.2873 41.1926C97.8396 41.1926 98.2873 40.7449 98.2873 40.1926H96.2873ZM72.9743 44.7842C72.5835 44.3939 71.9503 44.3944 71.5601 44.7852C71.1699 45.176 71.1703 45.8092 71.5612 46.1994L72.9743 44.7842ZM75.352 49.9846C75.7428 50.3748 76.376 50.3744 76.7662 49.9836C77.1564 49.5927 77.156 48.9596 76.7652 48.5693L75.352 49.9846ZM123.067 46.1994C123.458 45.8092 123.459 45.176 123.068 44.7852C122.678 44.3944 122.045 44.3939 121.654 44.7842L123.067 46.1994ZM116.293 50.1372C115.902 50.5274 115.902 51.1606 116.292 51.5514C116.682 51.9422 117.316 51.9427 117.706 51.5525L116.293 50.1372ZM120.035 92.5311C119.644 92.1409 119.011 92.1413 118.62 92.5322C118.23 92.923 118.231 93.5561 118.621 93.9464L120.035 92.5311ZM122.412 97.7315C122.803 98.1218 123.436 98.1213 123.826 97.7305C124.217 97.3397 124.216 96.7065 123.825 96.3163L122.412 97.7315ZM76.0071 93.9464C76.398 93.5561 76.3984 92.923 76.0082 92.5322C75.618 92.1413 74.9848 92.1409 74.594 92.5311L76.0071 93.9464ZM70.8032 96.3163C70.4124 96.7065 70.4119 97.3397 70.8021 97.7305C71.1924 98.1213 71.8255 98.1218 72.2163 97.7315L70.8032 96.3163ZM98.2873 103.026C98.2873 102.474 97.8396 102.026 97.2873 102.026C96.735 102.026 96.2873 102.474 96.2873 103.026H98.2873ZM96.2873 108.326C96.2873 108.878 96.735 109.326 97.2873 109.326C97.8396 109.326 98.2873 108.878 98.2873 108.326H96.2873ZM39.6665 48.7629C40.2188 48.7629 40.6665 48.3152 40.6665 47.7629C40.6665 47.2106 40.2188 46.7629 39.6665 46.7629V48.7629ZM14.647 46.7629C14.0947 46.7629 13.647 47.2106 13.647 47.7629C13.647 48.3152 14.0947 48.7629 14.647 48.7629V46.7629ZM39.6665 95.699C40.2188 95.699 40.6665 95.2513 40.6665 94.699C40.6665 94.1467 40.2188 93.699 39.6665 93.699L39.6665 95.699ZM14.647 93.699C14.0947 93.699 13.647 94.1467 13.647 94.699C13.647 95.2513 14.0947 95.699 14.647 95.699L14.647 93.699ZM35.8757 72.2309C36.428 72.2309 36.8757 71.7832 36.8757 71.2309C36.8757 70.6787 36.428 70.2309 35.8757 70.2309V72.2309ZM1 70.2309C0.447715 70.2309 5.96046e-08 70.6787 0 71.2309C-1.19209e-07 71.7832 0.447715 72.2309 1 72.2309L1 70.2309ZM99.6134 66.624C99.2225 67.0143 99.2221 67.6474 99.6123 68.0382C100.003 68.429 100.636 68.4295 101.027 68.0393L99.6134 66.624ZM112.285 56.7979C112.676 56.4077 112.676 55.7745 112.286 55.3837C111.896 54.9929 111.262 54.9924 110.872 55.3826L112.285 56.7979ZM100.836 70.8524C100.836 72.5983 99.4184 74.0161 97.6663 74.0161V76.0161C100.52 76.0161 102.836 73.7057 102.836 70.8524H100.836ZM97.6663 74.0161C95.9142 74.0161 94.4964 72.5983 94.4964 70.8524H92.4964C92.4964 73.7057 94.8125 76.0161 97.6663 76.0161V74.0161ZM94.4964 70.8524C94.4964 69.1066 95.9142 67.6888 97.6663 67.6888V65.6888C94.8125 65.6888 92.4964 67.9992 92.4964 70.8524H94.4964ZM97.6663 67.6888C99.4184 67.6888 100.836 69.1066 100.836 70.8524H102.836C102.836 67.9992 100.52 65.6888 97.6663 65.6888V67.6888ZM138.277 71.0223C138.277 93.7939 119.757 112.259 96.904 112.259V114.259C120.855 114.259 140.277 94.9045 140.277 71.0223H138.277ZM96.904 112.259C74.0514 112.259 55.5311 93.7939 55.5311 71.0223H53.5311C53.5311 94.9045 72.9529 114.259 96.904 114.259V112.259ZM55.5311 71.0223C55.5311 48.2507 74.0514 29.7852 96.904 29.7852V27.7852C72.9529 27.7852 53.5311 47.1401 53.5311 71.0223H55.5311ZM96.904 29.7852C119.757 29.7852 138.277 48.2507 138.277 71.0223H140.277C140.277 47.1401 120.855 27.7852 96.904 27.7852V29.7852ZM150 71.8806C150 101.444 125.956 125.416 96.2891 125.416V127.416C127.054 127.416 152 102.555 152 71.8806H150ZM96.2891 125.416C66.6224 125.416 42.5782 101.444 42.5782 71.8806H40.5782C40.5782 102.555 65.5239 127.416 96.2891 127.416V125.416ZM42.5782 71.8806C42.5782 42.3167 66.6224 18.345 96.2891 18.345V16.345C65.5239 16.345 40.5782 41.2061 40.5782 71.8806H42.5782ZM96.2891 18.345C125.956 18.345 150 42.3167 150 71.8806H152C152 41.2061 127.054 16.345 96.2891 16.345V18.345ZM89.9475 17.4816C89.9476 15.368 89.9472 14.4585 89.9475 12.1825L87.9475 12.1822C87.9472 14.4579 87.9476 15.369 87.9475 17.4815L89.9475 17.4816ZM102.353 12.1823V17.4816H104.353V12.1823H102.353ZM131.642 23.9082L137.685 28.8077L138.945 27.2541L132.902 22.3546L131.642 23.9082ZM137.685 28.8077C138.156 29.1897 138.227 29.8776 137.845 30.3453L139.394 31.6099C140.477 30.283 140.275 28.3323 138.945 27.2541L137.685 28.8077ZM137.848 30.3413L135.464 33.2322L137.007 34.5048L139.391 31.6139L137.848 30.3413ZM128.315 26.2893L130.097 24.0584L128.535 22.8099L126.752 25.0409L128.315 26.2893ZM130.091 24.0664C130.474 23.5967 131.169 23.5245 131.642 23.9082L132.902 22.3546C131.574 21.278 129.622 21.477 128.541 22.8019L130.091 24.0664ZM60.1371 72.2309H65.4442V70.2309H60.1371V72.2309ZM96.2873 34.8933V40.1926H98.2873V34.8933H96.2873ZM71.5612 46.1994L75.352 49.9846L76.7652 48.5693L72.9743 44.7842L71.5612 46.1994ZM121.654 44.7842L116.293 50.1372L117.706 51.5525L123.067 46.1994L121.654 44.7842ZM118.621 93.9464L122.412 97.7315L123.825 96.3163L120.035 92.5311L118.621 93.9464ZM74.594 92.5311L70.8032 96.3163L72.2163 97.7315L76.0071 93.9464L74.594 92.5311ZM96.2873 103.026V108.326H98.2873V103.026H96.2873ZM39.6665 46.7629L14.647 46.7629V48.7629L39.6665 48.7629V46.7629ZM39.6665 93.699L14.647 93.699L14.647 95.699L39.6665 95.699L39.6665 93.699ZM35.8757 70.2309L1 70.2309L1 72.2309L35.8757 72.2309V70.2309ZM101.027 68.0393L112.285 56.7979L110.872 55.3826L99.6134 66.624L101.027 68.0393ZM86.6729 13.1823H105.627V11.1823H86.6729V13.1823ZM105.627 0.583862H86.6729V2.58386H105.627V0.583862ZM86.6729 0.583862C83.191 0.583862 80.3657 3.40271 80.3657 6.8831H82.3657C82.3657 4.51011 84.2927 2.58386 86.6729 2.58386V0.583862ZM111.934 6.8831C111.934 3.40271 109.109 0.583862 105.627 0.583862V2.58386C108.007 2.58386 109.934 4.51011 109.934 6.8831H111.934ZM105.627 13.1823C109.109 13.1823 111.934 10.3635 111.934 6.8831H109.934C109.934 9.25609 108.007 11.1823 105.627 11.1823V13.1823ZM86.6729 11.1823C84.2927 11.1823 82.3657 9.25609 82.3657 6.8831H80.3657C80.3657 10.3635 83.191 13.1823 86.6729 13.1823V11.1823ZM128.372 72.2309H133.679V70.2309H128.372V72.2309Z" fill="black"/>
</svg>
