<svg width="20" height="24" viewBox="0 0 20 24" fill="none" xmlns="http://www.w3.org/2000/svg">
<path d="M13.3333 0H6.66667V2.22222H13.3333V0ZM8.88889 14.4444H11.1111V7.77778H8.88889V14.4444ZM17.8111 7.1L19.3889 5.52222C18.9111 4.95555 18.3889 4.42222 17.8222 3.95556L16.2444 5.53333C14.5222 4.15556 12.3556 3.33333 10 3.33333C4.47778 3.33333 0 7.81111 0 13.3333C0 18.8556 4.46667 23.3333 10 23.3333C15.5333 23.3333 20 18.8556 20 13.3333C20 10.9778 19.1778 8.81111 17.8111 7.1ZM10 21.1111C5.7 21.1111 2.22222 17.6333 2.22222 13.3333C2.22222 9.03333 5.7 5.55555 10 5.55555C14.3 5.55555 17.7778 9.03333 17.7778 13.3333C17.7778 17.6333 14.3 21.1111 10 21.1111Z" fill="white"/>
</svg>
